  0
SECTION
  2
HEADER
  9
$ACADVER
  1
AC1014
  9
$HANDSEED
  5
FFFF
  9
$MEASUREMENT
 70
     1
  0
ENDSEC
  0
SECTION
  2
TABLES
  0
TABLE
  2
VPORT
  5
8
330
0
100
AcDbSymbolTable
 70
     4
  0
VPORT
  5
2E
330
8
100
AcDbSymbolTableRecord
100
AcDbViewportTableRecord
  2
*ACTIVE
 70
     0
 10
0.0
 20
0.0
 11
1.0
 21
1.0
 12
210.0
 22
148.5
 13
0.0
 23
0.0
 14
10.0
 24
10.0
 15
10.0
 25
10.0
 16
0.0
 26
0.0
 36
1.0
 17
0.0
 27
0.0
 37
0.0
 40
341.0
 41
1.24
 42
50.0
 43
0.0
 44
0.0
 50
0.0
 51
0.0
 71
     0
 72
   100
 73
     1
 74
     3
 75
     0
 76
     0
 77
     0
 78
     0
  0
ENDTAB
  0
TABLE
  2
LTYPE
  5
5
330
0
100
AcDbSymbolTable
 70
     1
  0
LTYPE
  5
14
330
5
100
AcDbSymbolTableRecord
100
AcDbLinetypeTableRecord
  2
BYBLOCK
 70
     0
  3

 72
    65
 73
     0
 40
0.0
  0
LTYPE
  5
15
330
5
100
AcDbSymbolTableRecord
100
AcDbLinetypeTableRecord
  2
BYLAYER
 70
     0
  3

 72
    65
 73
     0
 40
0.0
  0
LTYPE
  5
16
330
5
100
AcDbSymbolTableRecord
100
AcDbLinetypeTableRecord
  2
CONTINUOUS
 70
     0
  3
Solid line
 72
    65
 73
     0
 40
0.0
  0
ENDTAB
  0
TABLE
  2
LAYER
  5
2
100
AcDbSymbolTable
 70
3
  0
LAYER
  5
50
100
AcDbSymbolTableRecord
100
AcDbLayerTableRecord
  2
0
 70
0
  6
CONTINUOUS
  0
LAYER
  5
51
100
AcDbSymbolTableRecord
100
AcDbLayerTableRecord
  2
PROFILEEDGES
 70
0
  6
CONTINUOUS
  0
LAYER
  5
52
100
AcDbSymbolTableRecord
100
AcDbLayerTableRecord
  2
SECTIONCUTEDGES
 70
0
  6
CONTINUOUS
  0
ENDTAB
  0
TABLE
  2
STYLE
  5
3
330
0
100
AcDbSymbolTable
 70
     1
  0
STYLE
  5
11
330
3
100
AcDbSymbolTableRecord
100
AcDbTextStyleTableRecord
  2
STANDARD
 70
     0
 40
0.0
 41
1.0
 50
0.0
 71
     0
 42
2.5
  3
txt
  4

  0
ENDTAB
  0
TABLE
  2
VIEW
  5
6
330
0
100
AcDbSymbolTable
 70
     0
  0
ENDTAB
  0
TABLE
  2
UCS
  5
7
330
0
100
AcDbSymbolTable
 70
     0
  0
ENDTAB
  0
TABLE
  2
APPID
  5
9
330
0
100
AcDbSymbolTable
 70
     2
  0
APPID
  5
12
330
9
100
AcDbSymbolTableRecord
100
AcDbRegAppTableRecord
  2
ACAD
 70
     0
  0
ENDTAB
  0
TABLE
  2
DIMSTYLE
  5
A
330
0
100
AcDbSymbolTable
 70
     1
  0
DIMSTYLE
105
27
330
A
100
AcDbSymbolTableRecord
100
AcDbDimStyleTableRecord
  2
ISO-25
 70
     0
  3

  4

  5

  6

  7

 40
1.0
 41
2.5
 42
0.625
 43
3.75
 44
1.25
 45
0.0
 46
0.0
 47
0.0
 48
0.0
140
2.5
141
2.5
142
0.0
143
0.03937007874016
144
1.0
145
0.0
146
1.0
147
0.625
 71
     0
 72
     0
 73
     0
 74
     0
 75
     0
 76
     0
 77
     1
 78
     8
170
     0
171
     3
172
     1
173
     0
174
     0
175
     0
176
     0
177
     0
178
     0
270
     2
271
     2
272
     2
273
     2
274
     3
340
11
275
     0
280
     0
281
     0
282
     0
283
     0
284
     8
285
     0
286
     0
287
     3
288
     0
  0
ENDTAB
  0
TABLE
  2
BLOCK_RECORD
  5
1
330
0
100
AcDbSymbolTable
 70
     1
  0
BLOCK_RECORD
  5
1F
330
1
100
AcDbSymbolTableRecord
100
AcDbBlockTableRecord
  2
*MODEL_SPACE
  0
BLOCK_RECORD
  5
1B
330
1
100
AcDbSymbolTableRecord
100
AcDbBlockTableRecord
  2
*PAPER_SPACE
  0
ENDTAB
  0
ENDSEC
  0
SECTION
  2
BLOCKS
  0
BLOCK
  5
20
330
1F
100
AcDbEntity
  8
0
100
AcDbBlockBegin
  2
*MODEL_SPACE
 70
     0
 10
0.0
 20
0.0
 30
0.0
  3
*MODEL_SPACE
  1

  0
ENDBLK
  5
21
330
1F
100
AcDbEntity
  8
0
100
AcDbBlockEnd
  0
BLOCK
  5
1C
330
1B
100
AcDbEntity
 67
     1
  8
0
100
AcDbBlockBegin
  2
*PAPER_SPACE
  1

  0
ENDBLK
  5
1D
330
1B
100
AcDbEntity
 67
     1
  8
0
100
AcDbBlockEnd
  0
ENDSEC
  0
SECTION
  2
ENTITIES
  0
LWPOLYLINE
  5
100
100
AcDbEntity
  8
0
 62
7
100
AcDbPolyline
 90
2
 70
0
 10
0.141111
 20
300.141132
 30
0.0
 10
300.141104
 20
300.141132
 30
0.0
  0
LWPOLYLINE
  5
101
100
AcDbEntity
  8
0
 62
7
100
AcDbPolyline
 90
2
 70
0
 10
0.141111
 20
0.141118
 30
0.0
 10
0.141111
 20
300.141132
 30
0.0
  0
LWPOLYLINE
  5
102
100
AcDbEntity
  8
0
 62
7
100
AcDbPolyline
 90
3
 70
0
 10
145.141112
 20
0.141118
 30
0.0
 10
145.141112
 20
15.141121
 30
0.0
 10
155.141112
 20
15.141121
 30
0.0
  0
LWPOLYLINE
  5
103
100
AcDbEntity
  8
0
 62
7
100
AcDbPolyline
 90
5
 70
0
 10
30.141110
 20
2.641127
 30
0.0
 10
30.141110
 20
22.641121
 30
0.0
 10
60.141112
 20
22.641121
 30
0.0
 10
60.141112
 20
2.641127
 30
0.0
 10
30.141110
 20
2.641127
 30
0.0
  0
LWPOLYLINE
  5
104
100
AcDbEntity
  8
0
 62
7
100
AcDbPolyline
 90
5
 70
0
 10
100.141111
 20
2.641127
 30
0.0
 10
100.141111
 20
22.641121
 30
0.0
 10
130.141111
 20
22.641121
 30
0.0
 10
130.141111
 20
2.641127
 30
0.0
 10
100.141111
 20
2.641127
 30
0.0
  0
LWPOLYLINE
  5
105
100
AcDbEntity
  8
0
 62
7
100
AcDbPolyline
 90
2
 70
0
 10
200.141112
 20
2.641127
 30
0.0
 10
200.141112
 20
22.641121
 30
0.0
  0
LWPOLYLINE
  5
106
100
AcDbEntity
  8
0
 62
7
100
AcDbPolyline
 90
3
 70
0
 10
170.141113
 20
22.641121
 30
0.0
 10
170.141113
 20
2.641127
 30
0.0
 10
200.141112
 20
2.641127
 30
0.0
  0
LWPOLYLINE
  5
107
100
AcDbEntity
  8
0
 62
7
100
AcDbPolyline
 90
5
 70
0
 10
240.141111
 20
2.641127
 30
0.0
 10
240.141111
 20
22.641121
 30
0.0
 10
270.141110
 20
22.641121
 30
0.0
 10
270.141110
 20
2.641127
 30
0.0
 10
240.141111
 20
2.641127
 30
0.0
  0
LWPOLYLINE
  5
108
100
AcDbEntity
  8
0
 62
7
100
AcDbPolyline
 90
2
 70
0
 10
300.141104
 20
300.141132
 30
0.0
 10
300.141104
 20
0.141118
 30
0.0
  0
LWPOLYLINE
  5
109
100
AcDbEntity
  8
0
 62
7
100
AcDbPolyline
 90
2
 70
0
 10
155.141112
 20
0.141118
 30
0.0
 10
155.141112
 20
15.141121
 30
0.0
  0
LWPOLYLINE
  5
10a
100
AcDbEntity
  8
0
 62
7
100
AcDbPolyline
 90
2
 70
0
 10
170.141113
 20
22.641121
 30
0.0
 10
200.141112
 20
22.641121
 30
0.0
  0
LWPOLYLINE
  5
10b
100
AcDbEntity
  8
0
 62
7
100
AcDbPolyline
 90
25
 70
0
 10
275.141111
 20
280.141132
 30
0.0
 10
275.311483
 20
281.435226
 30
0.0
 10
275.810983
 20
282.641130
 30
0.0
 10
276.605577
 20
283.676666
 30
0.0
 10
277.641112
 20
284.471260
 30
0.0
 10
278.847017
 20
284.970762
 30
0.0
 10
280.141110
 20
285.141131
 30
0.0
 10
281.435206
 20
284.970762
 30
0.0
 10
282.641125
 20
284.471260
 30
0.0
 10
283.676654
 20
283.676666
 30
0.0
 10
284.471251
 20
282.641130
 30
0.0
 10
284.970728
 20
281.435226
 30
0.0
 10
285.141106
 20
280.141132
 30
0.0
 10
284.970728
 20
278.847036
 30
0.0
 10
284.471251
 20
277.641132
 30
0.0
 10
283.676654
 20
276.605596
 30
0.0
 10
282.641125
 20
275.811005
 30
0.0
 10
281.435206
 20
275.311503
 30
0.0
 10
280.141110
 20
275.141131
 30
0.0
 10
278.847017
 20
275.311503
 30
0.0
 10
277.641112
 20
275.811005
 30
0.0
 10
276.605577
 20
276.605596
 30
0.0
 10
275.810983
 20
277.641132
 30
0.0
 10
275.311483
 20
278.847036
 30
0.0
 10
275.141111
 20
280.141132
 30
0.0
  0
LWPOLYLINE
  5
10c
100
AcDbEntity
  8
0
 62
7
100
AcDbPolyline
 90
25
 70
0
 10
15.141111
 20
280.141132
 30
0.0
 10
15.311482
 20
281.435226
 30
0.0
 10
15.810984
 20
282.641130
 30
0.0
 10
16.605577
 20
283.676666
 30
0.0
 10
17.641111
 20
284.471260
 30
0.0
 10
18.847016
 20
284.970762
 30
0.0
 10
20.141111
 20
285.141131
 30
0.0
 10
21.435206
 20
284.970762
 30
0.0
 10
22.641111
 20
284.471260
 30
0.0
 10
23.676645
 20
283.676666
 30
0.0
 10
24.471238
 20
282.641130
 30
0.0
 10
24.970740
 20
281.435226
 30
0.0
 10
25.141111
 20
280.141132
 30
0.0
 10
24.970740
 20
278.847036
 30
0.0
 10
24.471238
 20
277.641132
 30
0.0
 10
23.676645
 20
276.605596
 30
0.0
 10
22.641111
 20
275.811005
 30
0.0
 10
21.435206
 20
275.311503
 30
0.0
 10
20.141111
 20
275.141131
 30
0.0
 10
18.847016
 20
275.311503
 30
0.0
 10
17.641111
 20
275.811005
 30
0.0
 10
16.605577
 20
276.605596
 30
0.0
 10
15.810984
 20
277.641132
 30
0.0
 10
15.311482
 20
278.847036
 30
0.0
 10
15.141111
 20
280.141132
 30
0.0
  0
LWPOLYLINE
  5
10d
100
AcDbEntity
  8
0
 62
7
100
AcDbPolyline
 90
25
 70
0
 10
15.141111
 20
20.141140
 30
0.0
 10
15.311482
 20
21.435241
 30
0.0
 10
15.810984
 20
22.641121
 30
0.0
 10
16.605577
 20
23.676679
 30
0.0
 10
17.641111
 20
24.471247
 30
0.0
 10
18.847016
 20
24.970752
 30
0.0
 10
20.141111
 20
25.141130
 30
0.0
 10
21.435206
 20
24.970752
 30
0.0
 10
22.641111
 20
24.471247
 30
0.0
 10
23.676645
 20
23.676679
 30
0.0
 10
24.471238
 20
22.641121
 30
0.0
 10
24.970740
 20
21.435241
 30
0.0
 10
25.141111
 20
20.141140
 30
0.0
 10
24.970740
 20
18.847038
 30
0.0
 10
24.471238
 20
17.641131
 30
0.0
 10
23.676645
 20
16.605601
 30
0.0
 10
22.641111
 20
15.811004
 30
0.0
 10
21.435206
 20
15.311499
 30
0.0
 10
20.141111
 20
15.141121
 30
0.0
 10
18.847016
 20
15.311499
 30
0.0
 10
17.641111
 20
15.811004
 30
0.0
 10
16.605577
 20
16.605601
 30
0.0
 10
15.810984
 20
17.641131
 30
0.0
 10
15.311482
 20
18.847038
 30
0.0
 10
15.141111
 20
20.141140
 30
0.0
  0
LWPOLYLINE
  5
10e
100
AcDbEntity
  8
0
 62
7
100
AcDbPolyline
 90
2
 70
0
 10
255.658750
 20
19.072985
 30
0.0
 10
255.141112
 20
19.141142
 30
0.0
  0
LWPOLYLINE
  5
10f
100
AcDbEntity
  8
0
 62
7
100
AcDbPolyline
 90
2
 70
0
 10
256.141110
 20
18.873172
 30
0.0
 10
255.658750
 20
19.072985
 30
0.0
  0
LWPOLYLINE
  5
110
100
AcDbEntity
  8
0
 62
7
100
AcDbPolyline
 90
2
 70
0
 10
256.555325
 20
18.555333
 30
0.0
 10
256.141110
 20
18.873172
 30
0.0
  0
LWPOLYLINE
  5
111
100
AcDbEntity
  8
0
 62
7
100
AcDbPolyline
 90
2
 70
0
 10
256.873163
 20
18.141144
 30
0.0
 10
256.555325
 20
18.555333
 30
0.0
  0
LWPOLYLINE
  5
112
100
AcDbEntity
  8
0
 62
7
100
AcDbPolyline
 90
2
 70
0
 10
257.072963
 20
17.658769
 30
0.0
 10
256.873163
 20
18.141144
 30
0.0
  0
LWPOLYLINE
  5
113
100
AcDbEntity
  8
0
 62
7
100
AcDbPolyline
 90
2
 70
0
 10
257.141111
 20
17.141146
 30
0.0
 10
257.072963
 20
17.658769
 30
0.0
  0
LWPOLYLINE
  5
114
100
AcDbEntity
  8
0
 62
7
100
AcDbPolyline
 90
2
 70
0
 10
257.072963
 20
16.623494
 30
0.0
 10
257.141111
 20
17.141146
 30
0.0
  0
LWPOLYLINE
  5
115
100
AcDbEntity
  8
0
 62
7
100
AcDbPolyline
 90
2
 70
0
 10
256.873163
 20
16.141119
 30
0.0
 10
257.072963
 20
16.623494
 30
0.0
  0
LWPOLYLINE
  5
116
100
AcDbEntity
  8
0
 62
7
100
AcDbPolyline
 90
2
 70
0
 10
256.555325
 20
15.726930
 30
0.0
 10
256.873163
 20
16.141119
 30
0.0
  0
LWPOLYLINE
  5
117
100
AcDbEntity
  8
0
 62
7
100
AcDbPolyline
 90
2
 70
0
 10
256.141110
 20
15.409091
 30
0.0
 10
256.555325
 20
15.726930
 30
0.0
  0
LWPOLYLINE
  5
118
100
AcDbEntity
  8
0
 62
7
100
AcDbPolyline
 90
2
 70
0
 10
255.658750
 20
15.209278
 30
0.0
 10
256.141110
 20
15.409091
 30
0.0
  0
LWPOLYLINE
  5
119
100
AcDbEntity
  8
0
 62
7
100
AcDbPolyline
 90
2
 70
0
 10
255.141112
 20
15.141121
 30
0.0
 10
255.658750
 20
15.209278
 30
0.0
  0
LWPOLYLINE
  5
11a
100
AcDbEntity
  8
0
 62
7
100
AcDbPolyline
 90
2
 70
0
 10
254.623474
 20
15.209278
 30
0.0
 10
255.141112
 20
15.141121
 30
0.0
  0
LWPOLYLINE
  5
11b
100
AcDbEntity
  8
0
 62
7
100
AcDbPolyline
 90
2
 70
0
 10
254.141111
 20
15.409091
 30
0.0
 10
254.623474
 20
15.209278
 30
0.0
  0
LWPOLYLINE
  5
11c
100
AcDbEntity
  8
0
 62
7
100
AcDbPolyline
 90
2
 70
0
 10
253.726896
 20
15.726930
 30
0.0
 10
254.141111
 20
15.409091
 30
0.0
  0
LWPOLYLINE
  5
11d
100
AcDbEntity
  8
0
 62
7
100
AcDbPolyline
 90
2
 70
0
 10
253.409061
 20
16.141119
 30
0.0
 10
253.726896
 20
15.726930
 30
0.0
  0
LWPOLYLINE
  5
11e
100
AcDbEntity
  8
0
 62
7
100
AcDbPolyline
 90
2
 70
0
 10
253.209258
 20
16.623494
 30
0.0
 10
253.409061
 20
16.141119
 30
0.0
  0
LWPOLYLINE
  5
11f
100
AcDbEntity
  8
0
 62
7
100
AcDbPolyline
 90
2
 70
0
 10
253.141110
 20
17.141146
 30
0.0
 10
253.209258
 20
16.623494
 30
0.0
  0
LWPOLYLINE
  5
120
100
AcDbEntity
  8
0
 62
7
100
AcDbPolyline
 90
2
 70
0
 10
253.209258
 20
17.658769
 30
0.0
 10
253.141110
 20
17.141146
 30
0.0
  0
LWPOLYLINE
  5
121
100
AcDbEntity
  8
0
 62
7
100
AcDbPolyline
 90
2
 70
0
 10
253.409061
 20
18.141144
 30
0.0
 10
253.209258
 20
17.658769
 30
0.0
  0
LWPOLYLINE
  5
122
100
AcDbEntity
  8
0
 62
7
100
AcDbPolyline
 90
2
 70
0
 10
253.726896
 20
18.555333
 30
0.0
 10
253.409061
 20
18.141144
 30
0.0
  0
LWPOLYLINE
  5
123
100
AcDbEntity
  8
0
 62
7
100
AcDbPolyline
 90
2
 70
0
 10
254.141111
 20
18.873172
 30
0.0
 10
253.726896
 20
18.555333
 30
0.0
  0
LWPOLYLINE
  5
124
100
AcDbEntity
  8
0
 62
7
100
AcDbPolyline
 90
2
 70
0
 10
254.623474
 20
19.072985
 30
0.0
 10
254.141111
 20
18.873172
 30
0.0
  0
LWPOLYLINE
  5
125
100
AcDbEntity
  8
0
 62
7
100
AcDbPolyline
 90
2
 70
0
 10
255.141112
 20
19.141142
 30
0.0
 10
254.623474
 20
19.072985
 30
0.0
  0
LWPOLYLINE
  5
126
100
AcDbEntity
  8
0
 62
7
100
AcDbPolyline
 90
2
 70
0
 10
186.141112
 20
18.873172
 30
0.0
 10
185.658749
 20
19.072985
 30
0.0
  0
LWPOLYLINE
  5
127
100
AcDbEntity
  8
0
 62
7
100
AcDbPolyline
 90
2
 70
0
 10
186.555324
 20
18.555333
 30
0.0
 10
186.141112
 20
18.873172
 30
0.0
  0
LWPOLYLINE
  5
128
100
AcDbEntity
  8
0
 62
7
100
AcDbPolyline
 90
2
 70
0
 10
186.873162
 20
18.141144
 30
0.0
 10
186.555324
 20
18.555333
 30
0.0
  0
LWPOLYLINE
  5
129
100
AcDbEntity
  8
0
 62
7
100
AcDbPolyline
 90
2
 70
0
 10
187.072964
 20
17.658769
 30
0.0
 10
186.873162
 20
18.141144
 30
0.0
  0
LWPOLYLINE
  5
12a
100
AcDbEntity
  8
0
 62
7
100
AcDbPolyline
 90
2
 70
0
 10
187.141112
 20
17.141146
 30
0.0
 10
187.072964
 20
17.658769
 30
0.0
  0
LWPOLYLINE
  5
12b
100
AcDbEntity
  8
0
 62
7
100
AcDbPolyline
 90
2
 70
0
 10
187.072964
 20
16.623494
 30
0.0
 10
187.141112
 20
17.141146
 30
0.0
  0
LWPOLYLINE
  5
12c
100
AcDbEntity
  8
0
 62
7
100
AcDbPolyline
 90
2
 70
0
 10
186.873162
 20
16.141119
 30
0.0
 10
187.072964
 20
16.623494
 30
0.0
  0
LWPOLYLINE
  5
12d
100
AcDbEntity
  8
0
 62
7
100
AcDbPolyline
 90
2
 70
0
 10
186.555324
 20
15.726930
 30
0.0
 10
186.873162
 20
16.141119
 30
0.0
  0
LWPOLYLINE
  5
12e
100
AcDbEntity
  8
0
 62
7
100
AcDbPolyline
 90
2
 70
0
 10
186.141112
 20
15.409091
 30
0.0
 10
186.555324
 20
15.726930
 30
0.0
  0
LWPOLYLINE
  5
12f
100
AcDbEntity
  8
0
 62
7
100
AcDbPolyline
 90
2
 70
0
 10
185.658749
 20
15.209278
 30
0.0
 10
186.141112
 20
15.409091
 30
0.0
  0
LWPOLYLINE
  5
130
100
AcDbEntity
  8
0
 62
7
100
AcDbPolyline
 90
2
 70
0
 10
185.141111
 20
15.141121
 30
0.0
 10
185.658749
 20
15.209278
 30
0.0
  0
LWPOLYLINE
  5
131
100
AcDbEntity
  8
0
 62
7
100
AcDbPolyline
 90
2
 70
0
 10
184.623473
 20
15.209278
 30
0.0
 10
185.141111
 20
15.141121
 30
0.0
  0
LWPOLYLINE
  5
132
100
AcDbEntity
  8
0
 62
7
100
AcDbPolyline
 90
2
 70
0
 10
184.141110
 20
15.409091
 30
0.0
 10
184.623473
 20
15.209278
 30
0.0
  0
LWPOLYLINE
  5
133
100
AcDbEntity
  8
0
 62
7
100
AcDbPolyline
 90
2
 70
0
 10
183.726898
 20
15.726930
 30
0.0
 10
184.141110
 20
15.409091
 30
0.0
  0
LWPOLYLINE
  5
134
100
AcDbEntity
  8
0
 62
7
100
AcDbPolyline
 90
2
 70
0
 10
183.409059
 20
16.141119
 30
0.0
 10
183.726898
 20
15.726930
 30
0.0
  0
LWPOLYLINE
  5
135
100
AcDbEntity
  8
0
 62
7
100
AcDbPolyline
 90
2
 70
0
 10
183.209260
 20
16.623494
 30
0.0
 10
183.409059
 20
16.141119
 30
0.0
  0
LWPOLYLINE
  5
136
100
AcDbEntity
  8
0
 62
7
100
AcDbPolyline
 90
2
 70
0
 10
183.141112
 20
17.141146
 30
0.0
 10
183.209260
 20
16.623494
 30
0.0
  0
LWPOLYLINE
  5
137
100
AcDbEntity
  8
0
 62
7
100
AcDbPolyline
 90
2
 70
0
 10
183.209260
 20
17.658769
 30
0.0
 10
183.141112
 20
17.141146
 30
0.0
  0
LWPOLYLINE
  5
138
100
AcDbEntity
  8
0
 62
7
100
AcDbPolyline
 90
2
 70
0
 10
183.409059
 20
18.141144
 30
0.0
 10
183.209260
 20
17.658769
 30
0.0
  0
LWPOLYLINE
  5
139
100
AcDbEntity
  8
0
 62
7
100
AcDbPolyline
 90
2
 70
0
 10
183.726898
 20
18.555333
 30
0.0
 10
183.409059
 20
18.141144
 30
0.0
  0
LWPOLYLINE
  5
13a
100
AcDbEntity
  8
0
 62
7
100
AcDbPolyline
 90
2
 70
0
 10
184.141110
 20
18.873172
 30
0.0
 10
183.726898
 20
18.555333
 30
0.0
  0
LWPOLYLINE
  5
13b
100
AcDbEntity
  8
0
 62
7
100
AcDbPolyline
 90
2
 70
0
 10
184.623473
 20
19.072985
 30
0.0
 10
184.141110
 20
18.873172
 30
0.0
  0
LWPOLYLINE
  5
13c
100
AcDbEntity
  8
0
 62
7
100
AcDbPolyline
 90
2
 70
0
 10
185.141111
 20
19.141142
 30
0.0
 10
184.623473
 20
19.072985
 30
0.0
  0
LWPOLYLINE
  5
13d
100
AcDbEntity
  8
0
 62
7
100
AcDbPolyline
 90
2
 70
0
 10
185.658749
 20
19.072985
 30
0.0
 10
185.141111
 20
19.141142
 30
0.0
  0
LWPOLYLINE
  5
13e
100
AcDbEntity
  8
0
 62
7
100
AcDbPolyline
 90
2
 70
0
 10
114.141112
 20
18.873172
 30
0.0
 10
113.726897
 20
18.555333
 30
0.0
  0
LWPOLYLINE
  5
13f
100
AcDbEntity
  8
0
 62
7
100
AcDbPolyline
 90
2
 70
0
 10
114.623472
 20
19.072985
 30
0.0
 10
114.141112
 20
18.873172
 30
0.0
  0
LWPOLYLINE
  5
140
100
AcDbEntity
  8
0
 62
7
100
AcDbPolyline
 90
2
 70
0
 10
115.141113
 20
19.141142
 30
0.0
 10
114.623472
 20
19.072985
 30
0.0
  0
LWPOLYLINE
  5
141
100
AcDbEntity
  8
0
 62
7
100
AcDbPolyline
 90
2
 70
0
 10
115.658750
 20
19.072985
 30
0.0
 10
115.141113
 20
19.141142
 30
0.0
  0
LWPOLYLINE
  5
142
100
AcDbEntity
  8
0
 62
7
100
AcDbPolyline
 90
2
 70
0
 10
116.141111
 20
18.873172
 30
0.0
 10
115.658750
 20
19.072985
 30
0.0
  0
LWPOLYLINE
  5
143
100
AcDbEntity
  8
0
 62
7
100
AcDbPolyline
 90
2
 70
0
 10
116.555325
 20
18.555333
 30
0.0
 10
116.141111
 20
18.873172
 30
0.0
  0
LWPOLYLINE
  5
144
100
AcDbEntity
  8
0
 62
7
100
AcDbPolyline
 90
2
 70
0
 10
116.873161
 20
18.141144
 30
0.0
 10
116.555325
 20
18.555333
 30
0.0
  0
LWPOLYLINE
  5
145
100
AcDbEntity
  8
0
 62
7
100
AcDbPolyline
 90
2
 70
0
 10
117.072963
 20
17.658769
 30
0.0
 10
116.873161
 20
18.141144
 30
0.0
  0
LWPOLYLINE
  5
146
100
AcDbEntity
  8
0
 62
7
100
AcDbPolyline
 90
2
 70
0
 10
117.141111
 20
17.141146
 30
0.0
 10
117.072963
 20
17.658769
 30
0.0
  0
LWPOLYLINE
  5
147
100
AcDbEntity
  8
0
 62
7
100
AcDbPolyline
 90
2
 70
0
 10
117.072963
 20
16.623494
 30
0.0
 10
117.141111
 20
17.141146
 30
0.0
  0
LWPOLYLINE
  5
148
100
AcDbEntity
  8
0
 62
7
100
AcDbPolyline
 90
2
 70
0
 10
116.873161
 20
16.141119
 30
0.0
 10
117.072963
 20
16.623494
 30
0.0
  0
LWPOLYLINE
  5
149
100
AcDbEntity
  8
0
 62
7
100
AcDbPolyline
 90
2
 70
0
 10
116.555325
 20
15.726930
 30
0.0
 10
116.873161
 20
16.141119
 30
0.0
  0
LWPOLYLINE
  5
14a
100
AcDbEntity
  8
0
 62
7
100
AcDbPolyline
 90
2
 70
0
 10
116.141111
 20
15.409091
 30
0.0
 10
116.555325
 20
15.726930
 30
0.0
  0
LWPOLYLINE
  5
14b
100
AcDbEntity
  8
0
 62
7
100
AcDbPolyline
 90
2
 70
0
 10
115.658750
 20
15.209278
 30
0.0
 10
116.141111
 20
15.409091
 30
0.0
  0
LWPOLYLINE
  5
14c
100
AcDbEntity
  8
0
 62
7
100
AcDbPolyline
 90
2
 70
0
 10
115.141113
 20
15.141121
 30
0.0
 10
115.658750
 20
15.209278
 30
0.0
  0
LWPOLYLINE
  5
14d
100
AcDbEntity
  8
0
 62
7
100
AcDbPolyline
 90
2
 70
0
 10
114.623472
 20
15.209278
 30
0.0
 10
115.141113
 20
15.141121
 30
0.0
  0
LWPOLYLINE
  5
14e
100
AcDbEntity
  8
0
 62
7
100
AcDbPolyline
 90
2
 70
0
 10
114.141112
 20
15.409091
 30
0.0
 10
114.623472
 20
15.209278
 30
0.0
  0
LWPOLYLINE
  5
14f
100
AcDbEntity
  8
0
 62
7
100
AcDbPolyline
 90
2
 70
0
 10
113.726897
 20
15.726930
 30
0.0
 10
114.141112
 20
15.409091
 30
0.0
  0
LWPOLYLINE
  5
150
100
AcDbEntity
  8
0
 62
7
100
AcDbPolyline
 90
2
 70
0
 10
113.409061
 20
16.141119
 30
0.0
 10
113.726897
 20
15.726930
 30
0.0
  0
LWPOLYLINE
  5
151
100
AcDbEntity
  8
0
 62
7
100
AcDbPolyline
 90
2
 70
0
 10
113.209259
 20
16.623494
 30
0.0
 10
113.409061
 20
16.141119
 30
0.0
  0
LWPOLYLINE
  5
152
100
AcDbEntity
  8
0
 62
7
100
AcDbPolyline
 90
2
 70
0
 10
113.141111
 20
17.141146
 30
0.0
 10
113.209259
 20
16.623494
 30
0.0
  0
LWPOLYLINE
  5
153
100
AcDbEntity
  8
0
 62
7
100
AcDbPolyline
 90
2
 70
0
 10
113.209259
 20
17.658769
 30
0.0
 10
113.141111
 20
17.141146
 30
0.0
  0
LWPOLYLINE
  5
154
100
AcDbEntity
  8
0
 62
7
100
AcDbPolyline
 90
2
 70
0
 10
113.409061
 20
18.141144
 30
0.0
 10
113.209259
 20
17.658769
 30
0.0
  0
LWPOLYLINE
  5
155
100
AcDbEntity
  8
0
 62
7
100
AcDbPolyline
 90
2
 70
0
 10
113.726897
 20
18.555333
 30
0.0
 10
113.409061
 20
18.141144
 30
0.0
  0
LWPOLYLINE
  5
156
100
AcDbEntity
  8
0
 62
7
100
AcDbPolyline
 90
2
 70
0
 10
47.141110
 20
17.141146
 30
0.0
 10
47.072962
 20
17.658769
 30
0.0
  0
LWPOLYLINE
  5
157
100
AcDbEntity
  8
0
 62
7
100
AcDbPolyline
 90
2
 70
0
 10
47.072962
 20
16.623494
 30
0.0
 10
47.141110
 20
17.141146
 30
0.0
  0
LWPOLYLINE
  5
158
100
AcDbEntity
  8
0
 62
7
100
AcDbPolyline
 90
2
 70
0
 10
46.873163
 20
16.141119
 30
0.0
 10
47.072962
 20
16.623494
 30
0.0
  0
LWPOLYLINE
  5
159
100
AcDbEntity
  8
0
 62
7
100
AcDbPolyline
 90
2
 70
0
 10
46.555324
 20
15.726930
 30
0.0
 10
46.873163
 20
16.141119
 30
0.0
  0
LWPOLYLINE
  5
15a
100
AcDbEntity
  8
0
 62
7
100
AcDbPolyline
 90
2
 70
0
 10
46.141112
 20
15.409091
 30
0.0
 10
46.555324
 20
15.726930
 30
0.0
  0
LWPOLYLINE
  5
15b
100
AcDbEntity
  8
0
 62
7
100
AcDbPolyline
 90
2
 70
0
 10
45.658749
 20
15.209278
 30
0.0
 10
46.141112
 20
15.409091
 30
0.0
  0
LWPOLYLINE
  5
15c
100
AcDbEntity
  8
0
 62
7
100
AcDbPolyline
 90
2
 70
0
 10
45.141111
 20
15.141121
 30
0.0
 10
45.658749
 20
15.209278
 30
0.0
  0
LWPOLYLINE
  5
15d
100
AcDbEntity
  8
0
 62
7
100
AcDbPolyline
 90
2
 70
0
 10
44.623474
 20
15.209278
 30
0.0
 10
45.141111
 20
15.141121
 30
0.0
  0
LWPOLYLINE
  5
15e
100
AcDbEntity
  8
0
 62
7
100
AcDbPolyline
 90
2
 70
0
 10
44.141111
 20
15.409091
 30
0.0
 10
44.623474
 20
15.209278
 30
0.0
  0
LWPOLYLINE
  5
15f
100
AcDbEntity
  8
0
 62
7
100
AcDbPolyline
 90
2
 70
0
 10
43.726899
 20
15.726930
 30
0.0
 10
44.141111
 20
15.409091
 30
0.0
  0
LWPOLYLINE
  5
160
100
AcDbEntity
  8
0
 62
7
100
AcDbPolyline
 90
2
 70
0
 10
43.409060
 20
16.141119
 30
0.0
 10
43.726899
 20
15.726930
 30
0.0
  0
LWPOLYLINE
  5
161
100
AcDbEntity
  8
0
 62
7
100
AcDbPolyline
 90
2
 70
0
 10
43.209261
 20
16.623494
 30
0.0
 10
43.409060
 20
16.141119
 30
0.0
  0
LWPOLYLINE
  5
162
100
AcDbEntity
  8
0
 62
7
100
AcDbPolyline
 90
2
 70
0
 10
43.141113
 20
17.141146
 30
0.0
 10
43.209261
 20
16.623494
 30
0.0
  0
LWPOLYLINE
  5
163
100
AcDbEntity
  8
0
 62
7
100
AcDbPolyline
 90
2
 70
0
 10
43.209261
 20
17.658769
 30
0.0
 10
43.141113
 20
17.141146
 30
0.0
  0
LWPOLYLINE
  5
164
100
AcDbEntity
  8
0
 62
7
100
AcDbPolyline
 90
2
 70
0
 10
43.409060
 20
18.141144
 30
0.0
 10
43.209261
 20
17.658769
 30
0.0
  0
LWPOLYLINE
  5
165
100
AcDbEntity
  8
0
 62
7
100
AcDbPolyline
 90
2
 70
0
 10
43.726899
 20
18.555333
 30
0.0
 10
43.409060
 20
18.141144
 30
0.0
  0
LWPOLYLINE
  5
166
100
AcDbEntity
  8
0
 62
7
100
AcDbPolyline
 90
2
 70
0
 10
44.141111
 20
18.873172
 30
0.0
 10
43.726899
 20
18.555333
 30
0.0
  0
LWPOLYLINE
  5
167
100
AcDbEntity
  8
0
 62
7
100
AcDbPolyline
 90
2
 70
0
 10
44.623474
 20
19.072985
 30
0.0
 10
44.141111
 20
18.873172
 30
0.0
  0
LWPOLYLINE
  5
168
100
AcDbEntity
  8
0
 62
7
100
AcDbPolyline
 90
2
 70
0
 10
45.141111
 20
19.141142
 30
0.0
 10
44.623474
 20
19.072985
 30
0.0
  0
LWPOLYLINE
  5
169
100
AcDbEntity
  8
0
 62
7
100
AcDbPolyline
 90
2
 70
0
 10
45.658749
 20
19.072985
 30
0.0
 10
45.141111
 20
19.141142
 30
0.0
  0
LWPOLYLINE
  5
16a
100
AcDbEntity
  8
0
 62
7
100
AcDbPolyline
 90
2
 70
0
 10
46.141112
 20
18.873172
 30
0.0
 10
45.658749
 20
19.072985
 30
0.0
  0
LWPOLYLINE
  5
16b
100
AcDbEntity
  8
0
 62
7
100
AcDbPolyline
 90
2
 70
0
 10
46.555324
 20
18.555333
 30
0.0
 10
46.141112
 20
18.873172
 30
0.0
  0
LWPOLYLINE
  5
16c
100
AcDbEntity
  8
0
 62
7
100
AcDbPolyline
 90
2
 70
0
 10
46.873163
 20
18.141144
 30
0.0
 10
46.555324
 20
18.555333
 30
0.0
  0
LWPOLYLINE
  5
16d
100
AcDbEntity
  8
0
 62
7
100
AcDbPolyline
 90
2
 70
0
 10
47.072962
 20
17.658769
 30
0.0
 10
46.873163
 20
18.141144
 30
0.0
  0
LWPOLYLINE
  5
16e
100
AcDbEntity
  8
0
 62
7
100
AcDbPolyline
 90
25
 70
0
 10
276.141112
 20
240.141131
 30
0.0
 10
276.277409
 20
241.176407
 30
0.0
 10
276.677010
 20
242.141133
 30
0.0
 10
277.312684
 20
242.969560
 30
0.0
 10
278.141111
 20
243.605234
 30
0.0
 10
279.105834
 20
244.004836
 30
0.0
 10
280.141110
 20
244.141132
 30
0.0
 10
281.176389
 20
244.004836
 30
0.0
 10
282.141112
 20
243.605234
 30
0.0
 10
282.969547
 20
242.969560
 30
0.0
 10
283.605224
 20
242.141133
 30
0.0
 10
284.004822
 20
241.176407
 30
0.0
 10
284.141108
 20
240.141131
 30
0.0
 10
284.004822
 20
239.105856
 30
0.0
 10
283.605224
 20
238.141133
 30
0.0
 10
282.969547
 20
237.312706
 30
0.0
 10
282.141112
 20
236.677032
 30
0.0
 10
281.176389
 20
236.277430
 30
0.0
 10
280.141110
 20
236.141134
 30
0.0
 10
279.105834
 20
236.277430
 30
0.0
 10
278.141111
 20
236.677032
 30
0.0
 10
277.312684
 20
237.312706
 30
0.0
 10
276.677010
 20
238.141133
 30
0.0
 10
276.277409
 20
239.105856
 30
0.0
 10
276.141112
 20
240.141131
 30
0.0
  0
LWPOLYLINE
  5
16f
100
AcDbEntity
  8
0
 62
7
100
AcDbPolyline
 90
25
 70
0
 10
16.141111
 20
240.141131
 30
0.0
 10
16.277408
 20
241.176407
 30
0.0
 10
16.677010
 20
242.141133
 30
0.0
 10
17.312684
 20
242.969560
 30
0.0
 10
18.141111
 20
243.605234
 30
0.0
 10
19.105835
 20
244.004836
 30
0.0
 10
20.141111
 20
244.141132
 30
0.0
 10
21.176387
 20
244.004836
 30
0.0
 10
22.141111
 20
243.605234
 30
0.0
 10
22.969538
 20
242.969560
 30
0.0
 10
23.605213
 20
242.141133
 30
0.0
 10
24.004814
 20
241.176407
 30
0.0
 10
24.141111
 20
240.141131
 30
0.0
 10
24.004814
 20
239.105856
 30
0.0
 10
23.605213
 20
238.141133
 30
0.0
 10
22.969538
 20
237.312706
 30
0.0
 10
22.141111
 20
236.677032
 30
0.0
 10
21.176387
 20
236.277430
 30
0.0
 10
20.141111
 20
236.141134
 30
0.0
 10
19.105835
 20
236.277430
 30
0.0
 10
18.141111
 20
236.677032
 30
0.0
 10
17.312684
 20
237.312706
 30
0.0
 10
16.677010
 20
238.141133
 30
0.0
 10
16.277408
 20
239.105856
 30
0.0
 10
16.141111
 20
240.141131
 30
0.0
  0
LWPOLYLINE
  5
170
100
AcDbEntity
  8
0
 62
7
100
AcDbPolyline
 90
25
 70
0
 10
16.141111
 20
60.141144
 30
0.0
 10
16.277408
 20
61.176420
 30
0.0
 10
16.677010
 20
62.141140
 30
0.0
 10
17.312684
 20
62.969547
 30
0.0
 10
18.141111
 20
63.605225
 30
0.0
 10
19.105835
 20
64.004823
 30
0.0
 10
20.141111
 20
64.141136
 30
0.0
 10
21.176387
 20
64.004823
 30
0.0
 10
22.141111
 20
63.605225
 30
0.0
 10
22.969538
 20
62.969547
 30
0.0
 10
23.605213
 20
62.141140
 30
0.0
 10
24.004814
 20
61.176420
 30
0.0
 10
24.141111
 20
60.141144
 30
0.0
 10
24.004814
 20
59.105869
 30
0.0
 10
23.605213
 20
58.141120
 30
0.0
 10
22.969538
 20
57.312713
 30
0.0
 10
22.141111
 20
56.677036
 30
0.0
 10
21.176387
 20
56.277437
 30
0.0
 10
20.141111
 20
56.141124
 30
0.0
 10
19.105835
 20
56.277437
 30
0.0
 10
18.141111
 20
56.677036
 30
0.0
 10
17.312684
 20
57.312713
 30
0.0
 10
16.677010
 20
58.141120
 30
0.0
 10
16.277408
 20
59.105869
 30
0.0
 10
16.141111
 20
60.141144
 30
0.0
  0
LWPOLYLINE
  5
171
100
AcDbEntity
  8
0
 62
7
100
AcDbPolyline
 90
25
 70
0
 10
275.141111
 20
20.141140
 30
0.0
 10
275.311483
 20
21.435241
 30
0.0
 10
275.810983
 20
22.641121
 30
0.0
 10
276.605577
 20
23.676679
 30
0.0
 10
277.641112
 20
24.471247
 30
0.0
 10
278.847017
 20
24.970752
 30
0.0
 10
280.141110
 20
25.141130
 30
0.0
 10
281.435206
 20
24.970752
 30
0.0
 10
282.641125
 20
24.471247
 30
0.0
 10
283.676654
 20
23.676679
 30
0.0
 10
284.471251
 20
22.641121
 30
0.0
 10
284.970728
 20
21.435241
 30
0.0
 10
285.141106
 20
20.141140
 30
0.0
 10
284.970728
 20
18.847038
 30
0.0
 10
284.471251
 20
17.641131
 30
0.0
 10
283.676654
 20
16.605601
 30
0.0
 10
282.641125
 20
15.811004
 30
0.0
 10
281.435206
 20
15.311499
 30
0.0
 10
280.141110
 20
15.141121
 30
0.0
 10
278.847017
 20
15.311499
 30
0.0
 10
277.641112
 20
15.811004
 30
0.0
 10
276.605577
 20
16.605601
 30
0.0
 10
275.810983
 20
17.641131
 30
0.0
 10
275.311483
 20
18.847038
 30
0.0
 10
275.141111
 20
20.141140
 30
0.0
  0
LWPOLYLINE
  5
172
100
AcDbEntity
  8
0
 62
7
100
AcDbPolyline
 90
25
 70
0
 10
276.141112
 20
60.141144
 30
0.0
 10
276.277409
 20
61.176420
 30
0.0
 10
276.677010
 20
62.141140
 30
0.0
 10
277.312684
 20
62.969547
 30
0.0
 10
278.141111
 20
63.605225
 30
0.0
 10
279.105834
 20
64.004823
 30
0.0
 10
280.141110
 20
64.141136
 30
0.0
 10
281.176389
 20
64.004823
 30
0.0
 10
282.141112
 20
63.605225
 30
0.0
 10
282.969547
 20
62.969547
 30
0.0
 10
283.605224
 20
62.141140
 30
0.0
 10
284.004822
 20
61.176420
 30
0.0
 10
284.141108
 20
60.141144
 30
0.0
 10
284.004822
 20
59.105869
 30
0.0
 10
283.605224
 20
58.141120
 30
0.0
 10
282.969547
 20
57.312713
 30
0.0
 10
282.141112
 20
56.677036
 30
0.0
 10
281.176389
 20
56.277437
 30
0.0
 10
280.141110
 20
56.141124
 30
0.0
 10
279.105834
 20
56.277437
 30
0.0
 10
278.141111
 20
56.677036
 30
0.0
 10
277.312684
 20
57.312713
 30
0.0
 10
276.677010
 20
58.141120
 30
0.0
 10
276.277409
 20
59.105869
 30
0.0
 10
276.141112
 20
60.141144
 30
0.0
  0
LWPOLYLINE
  5
173
100
AcDbEntity
  8
0
 62
7
100
AcDbPolyline
 90
5
 70
0
 10
269.141112
 20
31.141146
 30
0.0
 10
251.141111
 20
31.141146
 30
0.0
 10
251.141111
 20
49.141138
 30
0.0
 10
269.141112
 20
49.141138
 30
0.0
 10
269.141112
 20
31.141146
 30
0.0
  0
LWPOLYLINE
  5
174
100
AcDbEntity
  8
0
 62
7
100
AcDbPolyline
 90
5
 70
0
 10
249.141110
 20
31.141146
 30
0.0
 10
231.141112
 20
31.141146
 30
0.0
 10
231.141112
 20
49.141138
 30
0.0
 10
249.141110
 20
49.141138
 30
0.0
 10
249.141110
 20
31.141146
 30
0.0
  0
LWPOLYLINE
  5
175
100
AcDbEntity
  8
0
 62
7
100
AcDbPolyline
 90
5
 70
0
 10
229.141110
 20
31.141146
 30
0.0
 10
229.141110
 20
49.141138
 30
0.0
 10
211.141112
 20
49.141138
 30
0.0
 10
211.141112
 20
31.141146
 30
0.0
 10
229.141110
 20
31.141146
 30
0.0
  0
LWPOLYLINE
  5
176
100
AcDbEntity
  8
0
 62
7
100
AcDbPolyline
 90
5
 70
0
 10
209.141111
 20
31.141146
 30
0.0
 10
209.141111
 20
49.141138
 30
0.0
 10
191.141110
 20
49.141138
 30
0.0
 10
191.141110
 20
31.141146
 30
0.0
 10
209.141111
 20
31.141146
 30
0.0
  0
LWPOLYLINE
  5
177
100
AcDbEntity
  8
0
 62
7
100
AcDbPolyline
 90
5
 70
0
 10
189.141111
 20
31.141146
 30
0.0
 10
189.141111
 20
49.141138
 30
0.0
 10
171.141111
 20
49.141138
 30
0.0
 10
171.141111
 20
31.141146
 30
0.0
 10
189.141111
 20
31.141146
 30
0.0
  0
LWPOLYLINE
  5
178
100
AcDbEntity
  8
0
 62
7
100
AcDbPolyline
 90
5
 70
0
 10
169.141112
 20
31.141146
 30
0.0
 10
151.141111
 20
31.141146
 30
0.0
 10
151.141111
 20
49.141138
 30
0.0
 10
169.141112
 20
49.141138
 30
0.0
 10
169.141112
 20
31.141146
 30
0.0
  0
LWPOLYLINE
  5
179
100
AcDbEntity
  8
0
 62
7
100
AcDbPolyline
 90
5
 70
0
 10
149.141112
 20
31.141146
 30
0.0
 10
131.141112
 20
31.141146
 30
0.0
 10
131.141112
 20
49.141138
 30
0.0
 10
149.141112
 20
49.141138
 30
0.0
 10
149.141112
 20
31.141146
 30
0.0
  0
LWPOLYLINE
  5
17a
100
AcDbEntity
  8
0
 62
7
100
AcDbPolyline
 90
2
 70
0
 10
129.141110
 20
31.141146
 30
0.0
 10
111.141112
 20
31.141146
 30
0.0
  0
LWPOLYLINE
  5
17b
100
AcDbEntity
  8
0
 62
7
100
AcDbPolyline
 90
4
 70
0
 10
129.141110
 20
31.141146
 30
0.0
 10
129.141110
 20
49.141138
 30
0.0
 10
111.141112
 20
49.141138
 30
0.0
 10
111.141112
 20
31.141146
 30
0.0
  0
LWPOLYLINE
  5
17c
100
AcDbEntity
  8
0
 62
7
100
AcDbPolyline
 90
5
 70
0
 10
109.141110
 20
31.141146
 30
0.0
 10
109.141110
 20
49.141138
 30
0.0
 10
91.141113
 20
49.141138
 30
0.0
 10
91.141113
 20
31.141146
 30
0.0
 10
109.141110
 20
31.141146
 30
0.0
  0
LWPOLYLINE
  5
17d
100
AcDbEntity
  8
0
 62
7
100
AcDbPolyline
 90
5
 70
0
 10
89.141111
 20
31.141146
 30
0.0
 10
89.141111
 20
49.141138
 30
0.0
 10
71.141110
 20
49.141138
 30
0.0
 10
71.141110
 20
31.141146
 30
0.0
 10
89.141111
 20
31.141146
 30
0.0
  0
LWPOLYLINE
  5
17e
100
AcDbEntity
  8
0
 62
7
100
AcDbPolyline
 90
5
 70
0
 10
69.141111
 20
31.141146
 30
0.0
 10
69.141111
 20
49.141138
 30
0.0
 10
51.141111
 20
49.141138
 30
0.0
 10
51.141111
 20
31.141146
 30
0.0
 10
69.141111
 20
31.141146
 30
0.0
  0
LWPOLYLINE
  5
17f
100
AcDbEntity
  8
0
 62
7
100
AcDbPolyline
 90
5
 70
0
 10
49.141112
 20
31.141146
 30
0.0
 10
49.141112
 20
49.141138
 30
0.0
 10
31.141111
 20
49.141138
 30
0.0
 10
31.141111
 20
31.141146
 30
0.0
 10
49.141112
 20
31.141146
 30
0.0
  0
LWPOLYLINE
  5
180
100
AcDbEntity
  8
0
 62
7
100
AcDbPolyline
 90
2
 70
0
 10
249.141110
 20
51.141134
 30
0.0
 10
231.141112
 20
51.141134
 30
0.0
  0
LWPOLYLINE
  5
181
100
AcDbEntity
  8
0
 62
7
100
AcDbPolyline
 90
2
 70
0
 10
269.141112
 20
51.141134
 30
0.0
 10
251.141111
 20
51.141134
 30
0.0
  0
LWPOLYLINE
  5
182
100
AcDbEntity
  8
0
 62
7
100
AcDbPolyline
 90
5
 70
0
 10
51.141111
 20
51.141134
 30
0.0
 10
69.141111
 20
51.141134
 30
0.0
 10
69.141111
 20
69.141126
 30
0.0
 10
51.141111
 20
69.141126
 30
0.0
 10
51.141111
 20
51.141134
 30
0.0
  0
LWPOLYLINE
  5
183
100
AcDbEntity
  8
0
 62
7
100
AcDbPolyline
 90
2
 70
0
 10
31.141111
 20
51.141134
 30
0.0
 10
49.141112
 20
51.141134
 30
0.0
  0
LWPOLYLINE
  5
184
100
AcDbEntity
  8
0
 62
7
100
AcDbPolyline
 90
2
 70
0
 10
129.141110
 20
69.141126
 30
0.0
 10
111.141112
 20
69.141126
 30
0.0
  0
LWPOLYLINE
  5
185
100
AcDbEntity
  8
0
 62
7
100
AcDbPolyline
 90
2
 70
0
 10
191.141110
 20
51.141134
 30
0.0
 10
209.141111
 20
51.141134
 30
0.0
  0
LWPOLYLINE
  5
186
100
AcDbEntity
  8
0
 62
7
100
AcDbPolyline
 90
4
 70
0
 10
49.141112
 20
51.141134
 30
0.0
 10
49.141112
 20
69.141126
 30
0.0
 10
31.141111
 20
69.141126
 30
0.0
 10
31.141111
 20
51.141134
 30
0.0
  0
LWPOLYLINE
  5
187
100
AcDbEntity
  8
0
 62
7
100
AcDbPolyline
 90
2
 70
0
 10
111.141112
 20
69.141126
 30
0.0
 10
111.141112
 20
51.141134
 30
0.0
  0
LWPOLYLINE
  5
188
100
AcDbEntity
  8
0
 62
7
100
AcDbPolyline
 90
2
 70
0
 10
209.141111
 20
51.141134
 30
0.0
 10
209.141111
 20
69.141126
 30
0.0
  0
LWPOLYLINE
  5
189
100
AcDbEntity
  8
0
 62
7
100
AcDbPolyline
 90
2
 70
0
 10
231.141112
 20
69.141126
 30
0.0
 10
249.141110
 20
69.141126
 30
0.0
  0
LWPOLYLINE
  5
18a
100
AcDbEntity
  8
0
 62
7
100
AcDbPolyline
 90
2
 70
0
 10
169.141112
 20
69.141126
 30
0.0
 10
169.141112
 20
51.141134
 30
0.0
  0
LWPOLYLINE
  5
18b
100
AcDbEntity
  8
0
 62
7
100
AcDbPolyline
 90
2
 70
0
 10
89.141111
 20
51.141134
 30
0.0
 10
89.141111
 20
69.141126
 30
0.0
  0
LWPOLYLINE
  5
18c
100
AcDbEntity
  8
0
 62
7
100
AcDbPolyline
 90
2
 70
0
 10
269.141112
 20
69.141126
 30
0.0
 10
269.141112
 20
51.141134
 30
0.0
  0
LWPOLYLINE
  5
18d
100
AcDbEntity
  8
0
 62
7
100
AcDbPolyline
 90
2
 70
0
 10
251.141111
 20
69.141126
 30
0.0
 10
269.141112
 20
69.141126
 30
0.0
  0
LWPOLYLINE
  5
18e
100
AcDbEntity
  8
0
 62
7
100
AcDbPolyline
 90
2
 70
0
 10
251.141111
 20
51.141134
 30
0.0
 10
251.141111
 20
69.141126
 30
0.0
  0
LWPOLYLINE
  5
18f
100
AcDbEntity
  8
0
 62
7
100
AcDbPolyline
 90
2
 70
0
 10
189.141111
 20
69.141126
 30
0.0
 10
171.141111
 20
69.141126
 30
0.0
  0
LWPOLYLINE
  5
190
100
AcDbEntity
  8
0
 62
7
100
AcDbPolyline
 90
3
 70
0
 10
131.141112
 20
69.141126
 30
0.0
 10
149.141112
 20
69.141126
 30
0.0
 10
149.141112
 20
51.141134
 30
0.0
  0
LWPOLYLINE
  5
191
100
AcDbEntity
  8
0
 62
7
100
AcDbPolyline
 90
2
 70
0
 10
131.141112
 20
51.141134
 30
0.0
 10
131.141112
 20
69.141126
 30
0.0
  0
LWPOLYLINE
  5
192
100
AcDbEntity
  8
0
 62
7
100
AcDbPolyline
 90
2
 70
0
 10
149.141112
 20
51.141134
 30
0.0
 10
131.141112
 20
51.141134
 30
0.0
  0
LWPOLYLINE
  5
193
100
AcDbEntity
  8
0
 62
7
100
AcDbPolyline
 90
2
 70
0
 10
229.141110
 20
69.141126
 30
0.0
 10
211.141112
 20
69.141126
 30
0.0
  0
LWPOLYLINE
  5
194
100
AcDbEntity
  8
0
 62
7
100
AcDbPolyline
 90
2
 70
0
 10
91.141113
 20
69.141126
 30
0.0
 10
91.141113
 20
51.141134
 30
0.0
  0
LWPOLYLINE
  5
195
100
AcDbEntity
  8
0
 62
7
100
AcDbPolyline
 90
2
 70
0
 10
109.141110
 20
51.141134
 30
0.0
 10
109.141110
 20
69.141126
 30
0.0
  0
LWPOLYLINE
  5
196
100
AcDbEntity
  8
0
 62
7
100
AcDbPolyline
 90
2
 70
0
 10
171.141111
 20
69.141126
 30
0.0
 10
171.141111
 20
51.141134
 30
0.0
  0
LWPOLYLINE
  5
197
100
AcDbEntity
  8
0
 62
7
100
AcDbPolyline
 90
2
 70
0
 10
229.141110
 20
51.141134
 30
0.0
 10
229.141110
 20
69.141126
 30
0.0
  0
LWPOLYLINE
  5
198
100
AcDbEntity
  8
0
 62
7
100
AcDbPolyline
 90
2
 70
0
 10
231.141112
 20
51.141134
 30
0.0
 10
231.141112
 20
69.141126
 30
0.0
  0
LWPOLYLINE
  5
199
100
AcDbEntity
  8
0
 62
7
100
AcDbPolyline
 90
2
 70
0
 10
249.141110
 20
69.141126
 30
0.0
 10
249.141110
 20
51.141134
 30
0.0
  0
LWPOLYLINE
  5
19a
100
AcDbEntity
  8
0
 62
7
100
AcDbPolyline
 90
3
 70
0
 10
209.141111
 20
69.141126
 30
0.0
 10
191.141110
 20
69.141126
 30
0.0
 10
191.141110
 20
51.141134
 30
0.0
  0
LWPOLYLINE
  5
19b
100
AcDbEntity
  8
0
 62
7
100
AcDbPolyline
 90
2
 70
0
 10
89.141111
 20
69.141126
 30
0.0
 10
71.141110
 20
69.141126
 30
0.0
  0
LWPOLYLINE
  5
19c
100
AcDbEntity
  8
0
 62
7
100
AcDbPolyline
 90
2
 70
0
 10
211.141112
 20
51.141134
 30
0.0
 10
229.141110
 20
51.141134
 30
0.0
  0
LWPOLYLINE
  5
19d
100
AcDbEntity
  8
0
 62
7
100
AcDbPolyline
 90
2
 70
0
 10
211.141112
 20
69.141126
 30
0.0
 10
211.141112
 20
51.141134
 30
0.0
  0
LWPOLYLINE
  5
19e
100
AcDbEntity
  8
0
 62
7
100
AcDbPolyline
 90
2
 70
0
 10
91.141113
 20
51.141134
 30
0.0
 10
109.141110
 20
51.141134
 30
0.0
  0
LWPOLYLINE
  5
19f
100
AcDbEntity
  8
0
 62
7
100
AcDbPolyline
 90
2
 70
0
 10
109.141110
 20
69.141126
 30
0.0
 10
91.141113
 20
69.141126
 30
0.0
  0
LWPOLYLINE
  5
1a0
100
AcDbEntity
  8
0
 62
7
100
AcDbPolyline
 90
2
 70
0
 10
129.141110
 20
51.141134
 30
0.0
 10
129.141110
 20
69.141126
 30
0.0
  0
LWPOLYLINE
  5
1a1
100
AcDbEntity
  8
0
 62
7
100
AcDbPolyline
 90
2
 70
0
 10
129.141110
 20
51.141134
 30
0.0
 10
111.141112
 20
51.141134
 30
0.0
  0
LWPOLYLINE
  5
1a2
100
AcDbEntity
  8
0
 62
7
100
AcDbPolyline
 90
2
 70
0
 10
71.141110
 20
51.141134
 30
0.0
 10
89.141111
 20
51.141134
 30
0.0
  0
LWPOLYLINE
  5
1a3
100
AcDbEntity
  8
0
 62
7
100
AcDbPolyline
 90
2
 70
0
 10
189.141111
 20
51.141134
 30
0.0
 10
189.141111
 20
69.141126
 30
0.0
  0
LWPOLYLINE
  5
1a4
100
AcDbEntity
  8
0
 62
7
100
AcDbPolyline
 90
2
 70
0
 10
151.141111
 20
69.141126
 30
0.0
 10
169.141112
 20
69.141126
 30
0.0
  0
LWPOLYLINE
  5
1a5
100
AcDbEntity
  8
0
 62
7
100
AcDbPolyline
 90
2
 70
0
 10
151.141111
 20
51.141134
 30
0.0
 10
151.141111
 20
69.141126
 30
0.0
  0
LWPOLYLINE
  5
1a6
100
AcDbEntity
  8
0
 62
7
100
AcDbPolyline
 90
2
 70
0
 10
169.141112
 20
51.141134
 30
0.0
 10
151.141111
 20
51.141134
 30
0.0
  0
LWPOLYLINE
  5
1a7
100
AcDbEntity
  8
0
 62
7
100
AcDbPolyline
 90
2
 70
0
 10
171.141111
 20
51.141134
 30
0.0
 10
189.141111
 20
51.141134
 30
0.0
  0
LWPOLYLINE
  5
1a8
100
AcDbEntity
  8
0
 62
7
100
AcDbPolyline
 90
2
 70
0
 10
71.141110
 20
69.141126
 30
0.0
 10
71.141110
 20
51.141134
 30
0.0
  0
LWPOLYLINE
  5
1a9
100
AcDbEntity
  8
0
 62
7
100
AcDbPolyline
 90
2
 70
0
 10
49.141112
 20
71.141122
 30
0.0
 10
49.141112
 20
89.141143
 30
0.0
  0
LWPOLYLINE
  5
1aa
100
AcDbEntity
  8
0
 62
7
100
AcDbPolyline
 90
5
 70
0
 10
211.141112
 20
71.141122
 30
0.0
 10
229.141110
 20
71.141122
 30
0.0
 10
229.141110
 20
89.141143
 30
0.0
 10
211.141112
 20
89.141143
 30
0.0
 10
211.141112
 20
71.141122
 30
0.0
  0
LWPOLYLINE
  5
1ab
100
AcDbEntity
  8
0
 62
7
100
AcDbPolyline
 90
2
 70
0
 10
169.141112
 20
89.141143
 30
0.0
 10
169.141112
 20
71.141122
 30
0.0
  0
LWPOLYLINE
  5
1ac
100
AcDbEntity
  8
0
 62
7
100
AcDbPolyline
 90
2
 70
0
 10
149.141112
 20
89.141143
 30
0.0
 10
149.141112
 20
71.141122
 30
0.0
  0
LWPOLYLINE
  5
1ad
100
AcDbEntity
  8
0
 62
7
100
AcDbPolyline
 90
2
 70
0
 10
131.141112
 20
89.141143
 30
0.0
 10
149.141112
 20
89.141143
 30
0.0
  0
LWPOLYLINE
  5
1ae
100
AcDbEntity
  8
0
 62
7
100
AcDbPolyline
 90
2
 70
0
 10
131.141112
 20
71.141122
 30
0.0
 10
131.141112
 20
89.141143
 30
0.0
  0
LWPOLYLINE
  5
1af
100
AcDbEntity
  8
0
 62
7
100
AcDbPolyline
 90
2
 70
0
 10
149.141112
 20
71.141122
 30
0.0
 10
131.141112
 20
71.141122
 30
0.0
  0
LWPOLYLINE
  5
1b0
100
AcDbEntity
  8
0
 62
7
100
AcDbPolyline
 90
2
 70
0
 10
109.141110
 20
89.141143
 30
0.0
 10
91.141113
 20
89.141143
 30
0.0
  0
LWPOLYLINE
  5
1b1
100
AcDbEntity
  8
0
 62
7
100
AcDbPolyline
 90
2
 70
0
 10
231.141112
 20
89.141143
 30
0.0
 10
249.141110
 20
89.141143
 30
0.0
  0
LWPOLYLINE
  5
1b2
100
AcDbEntity
  8
0
 62
7
100
AcDbPolyline
 90
2
 70
0
 10
191.141110
 20
71.141122
 30
0.0
 10
209.141111
 20
71.141122
 30
0.0
  0
LWPOLYLINE
  5
1b3
100
AcDbEntity
  8
0
 62
7
100
AcDbPolyline
 90
2
 70
0
 10
269.141112
 20
71.141122
 30
0.0
 10
251.141111
 20
71.141122
 30
0.0
  0
LWPOLYLINE
  5
1b4
100
AcDbEntity
  8
0
 62
7
100
AcDbPolyline
 90
2
 70
0
 10
111.141112
 20
89.141143
 30
0.0
 10
111.141112
 20
71.141122
 30
0.0
  0
LWPOLYLINE
  5
1b5
100
AcDbEntity
  8
0
 62
7
100
AcDbPolyline
 90
2
 70
0
 10
129.141110
 20
71.141122
 30
0.0
 10
111.141112
 20
71.141122
 30
0.0
  0
LWPOLYLINE
  5
1b6
100
AcDbEntity
  8
0
 62
7
100
AcDbPolyline
 90
3
 70
0
 10
129.141110
 20
71.141122
 30
0.0
 10
129.141110
 20
89.141143
 30
0.0
 10
111.141112
 20
89.141143
 30
0.0
  0
LWPOLYLINE
  5
1b7
100
AcDbEntity
  8
0
 62
7
100
AcDbPolyline
 90
2
 70
0
 10
69.141111
 20
89.141143
 30
0.0
 10
51.141111
 20
89.141143
 30
0.0
  0
LWPOLYLINE
  5
1b8
100
AcDbEntity
  8
0
 62
7
100
AcDbPolyline
 90
2
 70
0
 10
249.141110
 20
89.141143
 30
0.0
 10
249.141110
 20
71.141122
 30
0.0
  0
LWPOLYLINE
  5
1b9
100
AcDbEntity
  8
0
 62
7
100
AcDbPolyline
 90
2
 70
0
 10
231.141112
 20
71.141122
 30
0.0
 10
231.141112
 20
89.141143
 30
0.0
  0
LWPOLYLINE
  5
1ba
100
AcDbEntity
  8
0
 62
7
100
AcDbPolyline
 90
2
 70
0
 10
249.141110
 20
71.141122
 30
0.0
 10
231.141112
 20
71.141122
 30
0.0
  0
LWPOLYLINE
  5
1bb
100
AcDbEntity
  8
0
 62
7
100
AcDbPolyline
 90
2
 70
0
 10
71.141110
 20
89.141143
 30
0.0
 10
71.141110
 20
71.141122
 30
0.0
  0
LWPOLYLINE
  5
1bc
100
AcDbEntity
  8
0
 62
7
100
AcDbPolyline
 90
4
 70
0
 10
209.141111
 20
71.141122
 30
0.0
 10
209.141111
 20
89.141143
 30
0.0
 10
191.141110
 20
89.141143
 30
0.0
 10
191.141110
 20
71.141122
 30
0.0
  0
LWPOLYLINE
  5
1bd
100
AcDbEntity
  8
0
 62
7
100
AcDbPolyline
 90
2
 70
0
 10
189.141111
 20
71.141122
 30
0.0
 10
189.141111
 20
89.141143
 30
0.0
  0
LWPOLYLINE
  5
1be
100
AcDbEntity
  8
0
 62
7
100
AcDbPolyline
 90
2
 70
0
 10
71.141110
 20
71.141122
 30
0.0
 10
89.141111
 20
71.141122
 30
0.0
  0
LWPOLYLINE
  5
1bf
100
AcDbEntity
  8
0
 62
7
100
AcDbPolyline
 90
2
 70
0
 10
151.141111
 20
71.141122
 30
0.0
 10
151.141111
 20
89.141143
 30
0.0
  0
LWPOLYLINE
  5
1c0
100
AcDbEntity
  8
0
 62
7
100
AcDbPolyline
 90
2
 70
0
 10
251.141111
 20
89.141143
 30
0.0
 10
269.141112
 20
89.141143
 30
0.0
  0
LWPOLYLINE
  5
1c1
100
AcDbEntity
  8
0
 62
7
100
AcDbPolyline
 90
2
 70
0
 10
91.141113
 20
89.141143
 30
0.0
 10
91.141113
 20
71.141122
 30
0.0
  0
LWPOLYLINE
  5
1c2
100
AcDbEntity
  8
0
 62
7
100
AcDbPolyline
 90
2
 70
0
 10
171.141111
 20
71.141122
 30
0.0
 10
189.141111
 20
71.141122
 30
0.0
  0
LWPOLYLINE
  5
1c3
100
AcDbEntity
  8
0
 62
7
100
AcDbPolyline
 90
3
 70
0
 10
89.141111
 20
71.141122
 30
0.0
 10
89.141111
 20
89.141143
 30
0.0
 10
71.141110
 20
89.141143
 30
0.0
  0
LWPOLYLINE
  5
1c4
100
AcDbEntity
  8
0
 62
7
100
AcDbPolyline
 90
3
 70
0
 10
51.141111
 20
71.141122
 30
0.0
 10
69.141111
 20
71.141122
 30
0.0
 10
69.141111
 20
89.141143
 30
0.0
  0
LWPOLYLINE
  5
1c5
100
AcDbEntity
  8
0
 62
7
100
AcDbPolyline
 90
2
 70
0
 10
51.141111
 20
89.141143
 30
0.0
 10
51.141111
 20
71.141122
 30
0.0
  0
LWPOLYLINE
  5
1c6
100
AcDbEntity
  8
0
 62
7
100
AcDbPolyline
 90
2
 70
0
 10
109.141110
 20
71.141122
 30
0.0
 10
109.141110
 20
89.141143
 30
0.0
  0
LWPOLYLINE
  5
1c7
100
AcDbEntity
  8
0
 62
7
100
AcDbPolyline
 90
2
 70
0
 10
31.141111
 20
89.141143
 30
0.0
 10
31.141111
 20
71.141122
 30
0.0
  0
LWPOLYLINE
  5
1c8
100
AcDbEntity
  8
0
 62
7
100
AcDbPolyline
 90
2
 70
0
 10
171.141111
 20
89.141143
 30
0.0
 10
171.141111
 20
71.141122
 30
0.0
  0
LWPOLYLINE
  5
1c9
100
AcDbEntity
  8
0
 62
7
100
AcDbPolyline
 90
2
 70
0
 10
151.141111
 20
89.141143
 30
0.0
 10
169.141112
 20
89.141143
 30
0.0
  0
LWPOLYLINE
  5
1ca
100
AcDbEntity
  8
0
 62
7
100
AcDbPolyline
 90
2
 70
0
 10
169.141112
 20
71.141122
 30
0.0
 10
151.141111
 20
71.141122
 30
0.0
  0
LWPOLYLINE
  5
1cb
100
AcDbEntity
  8
0
 62
7
100
AcDbPolyline
 90
2
 70
0
 10
189.141111
 20
89.141143
 30
0.0
 10
171.141111
 20
89.141143
 30
0.0
  0
LWPOLYLINE
  5
1cc
100
AcDbEntity
  8
0
 62
7
100
AcDbPolyline
 90
2
 70
0
 10
31.141111
 20
71.141122
 30
0.0
 10
49.141112
 20
71.141122
 30
0.0
  0
LWPOLYLINE
  5
1cd
100
AcDbEntity
  8
0
 62
7
100
AcDbPolyline
 90
2
 70
0
 10
269.141112
 20
89.141143
 30
0.0
 10
269.141112
 20
71.141122
 30
0.0
  0
LWPOLYLINE
  5
1ce
100
AcDbEntity
  8
0
 62
7
100
AcDbPolyline
 90
2
 70
0
 10
251.141111
 20
71.141122
 30
0.0
 10
251.141111
 20
89.141143
 30
0.0
  0
LWPOLYLINE
  5
1cf
100
AcDbEntity
  8
0
 62
7
100
AcDbPolyline
 90
2
 70
0
 10
91.141113
 20
71.141122
 30
0.0
 10
109.141110
 20
71.141122
 30
0.0
  0
LWPOLYLINE
  5
1d0
100
AcDbEntity
  8
0
 62
7
100
AcDbPolyline
 90
2
 70
0
 10
49.141112
 20
89.141143
 30
0.0
 10
31.141111
 20
89.141143
 30
0.0
  0
LWPOLYLINE
  5
1d1
100
AcDbEntity
  8
0
 62
7
100
AcDbPolyline
 90
5
 70
0
 10
191.141110
 20
91.141139
 30
0.0
 10
209.141111
 20
91.141139
 30
0.0
 10
209.141111
 20
109.141131
 30
0.0
 10
191.141110
 20
109.141131
 30
0.0
 10
191.141110
 20
91.141139
 30
0.0
  0
LWPOLYLINE
  5
1d2
100
AcDbEntity
  8
0
 62
7
100
AcDbPolyline
 90
2
 70
0
 10
109.141110
 20
109.141131
 30
0.0
 10
91.141113
 20
109.141131
 30
0.0
  0
LWPOLYLINE
  5
1d3
100
AcDbEntity
  8
0
 62
7
100
AcDbPolyline
 90
2
 70
0
 10
129.141110
 20
109.141131
 30
0.0
 10
111.141112
 20
109.141131
 30
0.0
  0
LWPOLYLINE
  5
1d4
100
AcDbEntity
  8
0
 62
7
100
AcDbPolyline
 90
2
 70
0
 10
151.141111
 20
109.141131
 30
0.0
 10
169.141112
 20
109.141131
 30
0.0
  0
LWPOLYLINE
  5
1d5
100
AcDbEntity
  8
0
 62
7
100
AcDbPolyline
 90
2
 70
0
 10
131.141112
 20
109.141131
 30
0.0
 10
149.141112
 20
109.141131
 30
0.0
  0
LWPOLYLINE
  5
1d6
100
AcDbEntity
  8
0
 62
7
100
AcDbPolyline
 90
2
 70
0
 10
129.141110
 20
91.141139
 30
0.0
 10
111.141112
 20
91.141139
 30
0.0
  0
LWPOLYLINE
  5
1d7
100
AcDbEntity
  8
0
 62
7
100
AcDbPolyline
 90
2
 70
0
 10
249.141110
 20
109.141131
 30
0.0
 10
249.141110
 20
91.141139
 30
0.0
  0
LWPOLYLINE
  5
1d8
100
AcDbEntity
  8
0
 62
7
100
AcDbPolyline
 90
2
 70
0
 10
231.141112
 20
109.141131
 30
0.0
 10
249.141110
 20
109.141131
 30
0.0
  0
LWPOLYLINE
  5
1d9
100
AcDbEntity
  8
0
 62
7
100
AcDbPolyline
 90
2
 70
0
 10
231.141112
 20
91.141139
 30
0.0
 10
231.141112
 20
109.141131
 30
0.0
  0
LWPOLYLINE
  5
1da
100
AcDbEntity
  8
0
 62
7
100
AcDbPolyline
 90
2
 70
0
 10
249.141110
 20
91.141139
 30
0.0
 10
231.141112
 20
91.141139
 30
0.0
  0
LWPOLYLINE
  5
1db
100
AcDbEntity
  8
0
 62
7
100
AcDbPolyline
 90
2
 70
0
 10
149.141112
 20
91.141139
 30
0.0
 10
131.141112
 20
91.141139
 30
0.0
  0
LWPOLYLINE
  5
1dc
100
AcDbEntity
  8
0
 62
7
100
AcDbPolyline
 90
2
 70
0
 10
69.141111
 20
109.141131
 30
0.0
 10
51.141111
 20
109.141131
 30
0.0
  0
LWPOLYLINE
  5
1dd
100
AcDbEntity
  8
0
 62
7
100
AcDbPolyline
 90
2
 70
0
 10
149.141112
 20
109.141131
 30
0.0
 10
149.141112
 20
91.141139
 30
0.0
  0
LWPOLYLINE
  5
1de
100
AcDbEntity
  8
0
 62
7
100
AcDbPolyline
 90
2
 70
0
 10
131.141112
 20
91.141139
 30
0.0
 10
131.141112
 20
109.141131
 30
0.0
  0
LWPOLYLINE
  5
1df
100
AcDbEntity
  8
0
 62
7
100
AcDbPolyline
 90
2
 70
0
 10
251.141111
 20
91.141139
 30
0.0
 10
251.141111
 20
109.141131
 30
0.0
  0
LWPOLYLINE
  5
1e0
100
AcDbEntity
  8
0
 62
7
100
AcDbPolyline
 90
2
 70
0
 10
51.141111
 20
109.141131
 30
0.0
 10
51.141111
 20
91.141139
 30
0.0
  0
LWPOLYLINE
  5
1e1
100
AcDbEntity
  8
0
 62
7
100
AcDbPolyline
 90
2
 70
0
 10
169.141112
 20
91.141139
 30
0.0
 10
151.141111
 20
91.141139
 30
0.0
  0
LWPOLYLINE
  5
1e2
100
AcDbEntity
  8
0
 62
7
100
AcDbPolyline
 90
2
 70
0
 10
31.141111
 20
91.141139
 30
0.0
 10
49.141112
 20
91.141139
 30
0.0
  0
LWPOLYLINE
  5
1e3
100
AcDbEntity
  8
0
 62
7
100
AcDbPolyline
 90
3
 70
0
 10
51.141111
 20
91.141139
 30
0.0
 10
69.141111
 20
91.141139
 30
0.0
 10
69.141111
 20
109.141131
 30
0.0
  0
LWPOLYLINE
  5
1e4
100
AcDbEntity
  8
0
 62
7
100
AcDbPolyline
 90
5
 70
0
 10
71.141110
 20
91.141139
 30
0.0
 10
89.141111
 20
91.141139
 30
0.0
 10
89.141111
 20
109.141131
 30
0.0
 10
71.141110
 20
109.141131
 30
0.0
 10
71.141110
 20
91.141139
 30
0.0
  0
LWPOLYLINE
  5
1e5
100
AcDbEntity
  8
0
 62
7
100
AcDbPolyline
 90
2
 70
0
 10
189.141111
 20
91.141139
 30
0.0
 10
189.141111
 20
109.141131
 30
0.0
  0
LWPOLYLINE
  5
1e6
100
AcDbEntity
  8
0
 62
7
100
AcDbPolyline
 90
2
 70
0
 10
229.141110
 20
109.141131
 30
0.0
 10
211.141112
 20
109.141131
 30
0.0
  0
LWPOLYLINE
  5
1e7
100
AcDbEntity
  8
0
 62
7
100
AcDbPolyline
 90
2
 70
0
 10
269.141112
 20
91.141139
 30
0.0
 10
251.141111
 20
91.141139
 30
0.0
  0
LWPOLYLINE
  5
1e8
100
AcDbEntity
  8
0
 62
7
100
AcDbPolyline
 90
3
 70
0
 10
211.141112
 20
91.141139
 30
0.0
 10
229.141110
 20
91.141139
 30
0.0
 10
229.141110
 20
109.141131
 30
0.0
  0
LWPOLYLINE
  5
1e9
100
AcDbEntity
  8
0
 62
7
100
AcDbPolyline
 90
2
 70
0
 10
211.141112
 20
109.141131
 30
0.0
 10
211.141112
 20
91.141139
 30
0.0
  0
LWPOLYLINE
  5
1ea
100
AcDbEntity
  8
0
 62
7
100
AcDbPolyline
 90
2
 70
0
 10
171.141111
 20
109.141131
 30
0.0
 10
171.141111
 20
91.141139
 30
0.0
  0
LWPOLYLINE
  5
1eb
100
AcDbEntity
  8
0
 62
7
100
AcDbPolyline
 90
2
 70
0
 10
129.141110
 20
91.141139
 30
0.0
 10
129.141110
 20
109.141131
 30
0.0
  0
LWPOLYLINE
  5
1ec
100
AcDbEntity
  8
0
 62
7
100
AcDbPolyline
 90
4
 70
0
 10
49.141112
 20
91.141139
 30
0.0
 10
49.141112
 20
109.141131
 30
0.0
 10
31.141111
 20
109.141131
 30
0.0
 10
31.141111
 20
91.141139
 30
0.0
  0
LWPOLYLINE
  5
1ed
100
AcDbEntity
  8
0
 62
7
100
AcDbPolyline
 90
2
 70
0
 10
91.141113
 20
109.141131
 30
0.0
 10
91.141113
 20
91.141139
 30
0.0
  0
LWPOLYLINE
  5
1ee
100
AcDbEntity
  8
0
 62
7
100
AcDbPolyline
 90
2
 70
0
 10
269.141112
 20
109.141131
 30
0.0
 10
269.141112
 20
91.141139
 30
0.0
  0
LWPOLYLINE
  5
1ef
100
AcDbEntity
  8
0
 62
7
100
AcDbPolyline
 90
2
 70
0
 10
251.141111
 20
109.141131
 30
0.0
 10
269.141112
 20
109.141131
 30
0.0
  0
LWPOLYLINE
  5
1f0
100
AcDbEntity
  8
0
 62
7
100
AcDbPolyline
 90
2
 70
0
 10
91.141113
 20
91.141139
 30
0.0
 10
109.141110
 20
91.141139
 30
0.0
  0
LWPOLYLINE
  5
1f1
100
AcDbEntity
  8
0
 62
7
100
AcDbPolyline
 90
2
 70
0
 10
169.141112
 20
109.141131
 30
0.0
 10
169.141112
 20
91.141139
 30
0.0
  0
LWPOLYLINE
  5
1f2
100
AcDbEntity
  8
0
 62
7
100
AcDbPolyline
 90
2
 70
0
 10
111.141112
 20
109.141131
 30
0.0
 10
111.141112
 20
91.141139
 30
0.0
  0
LWPOLYLINE
  5
1f3
100
AcDbEntity
  8
0
 62
7
100
AcDbPolyline
 90
2
 70
0
 10
171.141111
 20
91.141139
 30
0.0
 10
189.141111
 20
91.141139
 30
0.0
  0
LWPOLYLINE
  5
1f4
100
AcDbEntity
  8
0
 62
7
100
AcDbPolyline
 90
2
 70
0
 10
189.141111
 20
109.141131
 30
0.0
 10
171.141111
 20
109.141131
 30
0.0
  0
LWPOLYLINE
  5
1f5
100
AcDbEntity
  8
0
 62
7
100
AcDbPolyline
 90
2
 70
0
 10
109.141110
 20
91.141139
 30
0.0
 10
109.141110
 20
109.141131
 30
0.0
  0
LWPOLYLINE
  5
1f6
100
AcDbEntity
  8
0
 62
7
100
AcDbPolyline
 90
2
 70
0
 10
151.141111
 20
91.141139
 30
0.0
 10
151.141111
 20
109.141131
 30
0.0
  0
LWPOLYLINE
  5
1f7
100
AcDbEntity
  8
0
 62
7
100
AcDbPolyline
 90
2
 70
0
 10
231.141112
 20
129.141119
 30
0.0
 10
249.141110
 20
129.141119
 30
0.0
  0
LWPOLYLINE
  5
1f8
100
AcDbEntity
  8
0
 62
7
100
AcDbPolyline
 90
2
 70
0
 10
211.141112
 20
129.141119
 30
0.0
 10
211.141112
 20
111.141127
 30
0.0
  0
LWPOLYLINE
  5
1f9
100
AcDbEntity
  8
0
 62
7
100
AcDbPolyline
 90
2
 70
0
 10
149.141112
 20
111.141127
 30
0.0
 10
131.141112
 20
111.141127
 30
0.0
  0
LWPOLYLINE
  5
1fa
100
AcDbEntity
  8
0
 62
7
100
AcDbPolyline
 90
2
 70
0
 10
191.141110
 20
129.141119
 30
0.0
 10
191.141110
 20
111.141127
 30
0.0
  0
LWPOLYLINE
  5
1fb
100
AcDbEntity
  8
0
 62
7
100
AcDbPolyline
 90
2
 70
0
 10
109.141110
 20
111.141127
 30
0.0
 10
109.141110
 20
129.141119
 30
0.0
  0
LWPOLYLINE
  5
1fc
100
AcDbEntity
  8
0
 62
7
100
AcDbPolyline
 90
2
 70
0
 10
91.141113
 20
111.141127
 30
0.0
 10
109.141110
 20
111.141127
 30
0.0
  0
LWPOLYLINE
  5
1fd
100
AcDbEntity
  8
0
 62
7
100
AcDbPolyline
 90
3
 70
0
 10
109.141110
 20
129.141119
 30
0.0
 10
91.141113
 20
129.141119
 30
0.0
 10
91.141113
 20
111.141127
 30
0.0
  0
LWPOLYLINE
  5
1fe
100
AcDbEntity
  8
0
 62
7
100
AcDbPolyline
 90
2
 70
0
 10
169.141112
 20
129.141119
 30
0.0
 10
169.141112
 20
111.141127
 30
0.0
  0
LWPOLYLINE
  5
1ff
100
AcDbEntity
  8
0
 62
7
100
AcDbPolyline
 90
2
 70
0
 10
151.141111
 20
129.141119
 30
0.0
 10
169.141112
 20
129.141119
 30
0.0
  0
LWPOLYLINE
  5
200
100
AcDbEntity
  8
0
 62
7
100
AcDbPolyline
 90
2
 70
0
 10
151.141111
 20
111.141127
 30
0.0
 10
151.141111
 20
129.141119
 30
0.0
  0
LWPOLYLINE
  5
201
100
AcDbEntity
  8
0
 62
7
100
AcDbPolyline
 90
2
 70
0
 10
169.141112
 20
111.141127
 30
0.0
 10
151.141111
 20
111.141127
 30
0.0
  0
LWPOLYLINE
  5
202
100
AcDbEntity
  8
0
 62
7
100
AcDbPolyline
 90
2
 70
0
 10
111.141112
 20
129.141119
 30
0.0
 10
111.141112
 20
111.141127
 30
0.0
  0
LWPOLYLINE
  5
203
100
AcDbEntity
  8
0
 62
7
100
AcDbPolyline
 90
2
 70
0
 10
129.141110
 20
111.141127
 30
0.0
 10
111.141112
 20
111.141127
 30
0.0
  0
LWPOLYLINE
  5
204
100
AcDbEntity
  8
0
 62
7
100
AcDbPolyline
 90
3
 70
0
 10
129.141110
 20
111.141127
 30
0.0
 10
129.141110
 20
129.141119
 30
0.0
 10
111.141112
 20
129.141119
 30
0.0
  0
LWPOLYLINE
  5
205
100
AcDbEntity
  8
0
 62
7
100
AcDbPolyline
 90
2
 70
0
 10
89.141111
 20
129.141119
 30
0.0
 10
71.141110
 20
129.141119
 30
0.0
  0
LWPOLYLINE
  5
206
100
AcDbEntity
  8
0
 62
7
100
AcDbPolyline
 90
2
 70
0
 10
31.141111
 20
111.141127
 30
0.0
 10
49.141112
 20
111.141127
 30
0.0
  0
LWPOLYLINE
  5
207
100
AcDbEntity
  8
0
 62
7
100
AcDbPolyline
 90
2
 70
0
 10
131.141112
 20
129.141119
 30
0.0
 10
149.141112
 20
129.141119
 30
0.0
  0
LWPOLYLINE
  5
208
100
AcDbEntity
  8
0
 62
7
100
AcDbPolyline
 90
2
 70
0
 10
249.141110
 20
129.141119
 30
0.0
 10
249.141110
 20
111.141127
 30
0.0
  0
LWPOLYLINE
  5
209
100
AcDbEntity
  8
0
 62
7
100
AcDbPolyline
 90
2
 70
0
 10
209.141111
 20
111.141127
 30
0.0
 10
209.141111
 20
129.141119
 30
0.0
  0
LWPOLYLINE
  5
20a
100
AcDbEntity
  8
0
 62
7
100
AcDbPolyline
 90
2
 70
0
 10
149.141112
 20
129.141119
 30
0.0
 10
149.141112
 20
111.141127
 30
0.0
  0
LWPOLYLINE
  5
20b
100
AcDbEntity
  8
0
 62
7
100
AcDbPolyline
 90
2
 70
0
 10
229.141110
 20
129.141119
 30
0.0
 10
211.141112
 20
129.141119
 30
0.0
  0
LWPOLYLINE
  5
20c
100
AcDbEntity
  8
0
 62
7
100
AcDbPolyline
 90
2
 70
0
 10
131.141112
 20
111.141127
 30
0.0
 10
131.141112
 20
129.141119
 30
0.0
  0
LWPOLYLINE
  5
20d
100
AcDbEntity
  8
0
 62
7
100
AcDbPolyline
 90
2
 70
0
 10
89.141111
 20
111.141127
 30
0.0
 10
89.141111
 20
129.141119
 30
0.0
  0
LWPOLYLINE
  5
20e
100
AcDbEntity
  8
0
 62
7
100
AcDbPolyline
 90
4
 70
0
 10
49.141112
 20
111.141127
 30
0.0
 10
49.141112
 20
129.141119
 30
0.0
 10
31.141111
 20
129.141119
 30
0.0
 10
31.141111
 20
111.141127
 30
0.0
  0
LWPOLYLINE
  5
20f
100
AcDbEntity
  8
0
 62
7
100
AcDbPolyline
 90
2
 70
0
 10
269.141112
 20
129.141119
 30
0.0
 10
269.141112
 20
111.141127
 30
0.0
  0
LWPOLYLINE
  5
210
100
AcDbEntity
  8
0
 62
7
100
AcDbPolyline
 90
2
 70
0
 10
251.141111
 20
129.141119
 30
0.0
 10
269.141112
 20
129.141119
 30
0.0
  0
LWPOLYLINE
  5
211
100
AcDbEntity
  8
0
 62
7
100
AcDbPolyline
 90
2
 70
0
 10
251.141111
 20
111.141127
 30
0.0
 10
251.141111
 20
129.141119
 30
0.0
  0
LWPOLYLINE
  5
212
100
AcDbEntity
  8
0
 62
7
100
AcDbPolyline
 90
2
 70
0
 10
269.141112
 20
111.141127
 30
0.0
 10
251.141111
 20
111.141127
 30
0.0
  0
LWPOLYLINE
  5
213
100
AcDbEntity
  8
0
 62
7
100
AcDbPolyline
 90
2
 70
0
 10
231.141112
 20
111.141127
 30
0.0
 10
231.141112
 20
129.141119
 30
0.0
  0
LWPOLYLINE
  5
214
100
AcDbEntity
  8
0
 62
7
100
AcDbPolyline
 90
2
 70
0
 10
249.141110
 20
111.141127
 30
0.0
 10
231.141112
 20
111.141127
 30
0.0
  0
LWPOLYLINE
  5
215
100
AcDbEntity
  8
0
 62
7
100
AcDbPolyline
 90
2
 70
0
 10
51.141111
 20
129.141119
 30
0.0
 10
51.141111
 20
111.141127
 30
0.0
  0
LWPOLYLINE
  5
216
100
AcDbEntity
  8
0
 62
7
100
AcDbPolyline
 90
2
 70
0
 10
69.141111
 20
111.141127
 30
0.0
 10
69.141111
 20
129.141119
 30
0.0
  0
LWPOLYLINE
  5
217
100
AcDbEntity
  8
0
 62
7
100
AcDbPolyline
 90
2
 70
0
 10
189.141111
 20
111.141127
 30
0.0
 10
189.141111
 20
129.141119
 30
0.0
  0
LWPOLYLINE
  5
218
100
AcDbEntity
  8
0
 62
7
100
AcDbPolyline
 90
2
 70
0
 10
69.141111
 20
129.141119
 30
0.0
 10
51.141111
 20
129.141119
 30
0.0
  0
LWPOLYLINE
  5
219
100
AcDbEntity
  8
0
 62
7
100
AcDbPolyline
 90
3
 70
0
 10
211.141112
 20
111.141127
 30
0.0
 10
229.141110
 20
111.141127
 30
0.0
 10
229.141110
 20
129.141119
 30
0.0
  0
LWPOLYLINE
  5
21a
100
AcDbEntity
  8
0
 62
7
100
AcDbPolyline
 90
2
 70
0
 10
71.141110
 20
111.141127
 30
0.0
 10
89.141111
 20
111.141127
 30
0.0
  0
LWPOLYLINE
  5
21b
100
AcDbEntity
  8
0
 62
7
100
AcDbPolyline
 90
2
 70
0
 10
71.141110
 20
129.141119
 30
0.0
 10
71.141110
 20
111.141127
 30
0.0
  0
LWPOLYLINE
  5
21c
100
AcDbEntity
  8
0
 62
7
100
AcDbPolyline
 90
2
 70
0
 10
209.141111
 20
129.141119
 30
0.0
 10
191.141110
 20
129.141119
 30
0.0
  0
LWPOLYLINE
  5
21d
100
AcDbEntity
  8
0
 62
7
100
AcDbPolyline
 90
2
 70
0
 10
51.141111
 20
111.141127
 30
0.0
 10
69.141111
 20
111.141127
 30
0.0
  0
LWPOLYLINE
  5
21e
100
AcDbEntity
  8
0
 62
7
100
AcDbPolyline
 90
2
 70
0
 10
171.141111
 20
111.141127
 30
0.0
 10
189.141111
 20
111.141127
 30
0.0
  0
LWPOLYLINE
  5
21f
100
AcDbEntity
  8
0
 62
7
100
AcDbPolyline
 90
3
 70
0
 10
189.141111
 20
129.141119
 30
0.0
 10
171.141111
 20
129.141119
 30
0.0
 10
171.141111
 20
111.141127
 30
0.0
  0
LWPOLYLINE
  5
220
100
AcDbEntity
  8
0
 62
7
100
AcDbPolyline
 90
2
 70
0
 10
191.141110
 20
111.141127
 30
0.0
 10
209.141111
 20
111.141127
 30
0.0
  0
LWPOLYLINE
  5
221
100
AcDbEntity
  8
0
 62
7
100
AcDbPolyline
 90
2
 70
0
 10
269.141112
 20
149.141136
 30
0.0
 10
269.141112
 20
131.141143
 30
0.0
  0
LWPOLYLINE
  5
222
100
AcDbEntity
  8
0
 62
7
100
AcDbPolyline
 90
2
 70
0
 10
31.141111
 20
149.141136
 30
0.0
 10
31.141111
 20
131.141143
 30
0.0
  0
LWPOLYLINE
  5
223
100
AcDbEntity
  8
0
 62
7
100
AcDbPolyline
 90
2
 70
0
 10
109.141110
 20
131.141143
 30
0.0
 10
109.141110
 20
149.141136
 30
0.0
  0
LWPOLYLINE
  5
224
100
AcDbEntity
  8
0
 62
7
100
AcDbPolyline
 90
2
 70
0
 10
171.141111
 20
149.141136
 30
0.0
 10
171.141111
 20
131.141143
 30
0.0
  0
LWPOLYLINE
  5
225
100
AcDbEntity
  8
0
 62
7
100
AcDbPolyline
 90
2
 70
0
 10
211.141112
 20
131.141143
 30
0.0
 10
229.141110
 20
131.141143
 30
0.0
  0
LWPOLYLINE
  5
226
100
AcDbEntity
  8
0
 62
7
100
AcDbPolyline
 90
2
 70
0
 10
131.141112
 20
131.141143
 30
0.0
 10
131.141112
 20
149.141136
 30
0.0
  0
LWPOLYLINE
  5
227
100
AcDbEntity
  8
0
 62
7
100
AcDbPolyline
 90
2
 70
0
 10
189.141111
 20
131.141143
 30
0.0
 10
189.141111
 20
149.141136
 30
0.0
  0
LWPOLYLINE
  5
228
100
AcDbEntity
  8
0
 62
7
100
AcDbPolyline
 90
2
 70
0
 10
111.141112
 20
149.141136
 30
0.0
 10
111.141112
 20
131.141143
 30
0.0
  0
LWPOLYLINE
  5
229
100
AcDbEntity
  8
0
 62
7
100
AcDbPolyline
 90
2
 70
0
 10
129.141110
 20
131.141143
 30
0.0
 10
111.141112
 20
131.141143
 30
0.0
  0
LWPOLYLINE
  5
22a
100
AcDbEntity
  8
0
 62
7
100
AcDbPolyline
 90
2
 70
0
 10
251.141111
 20
149.141136
 30
0.0
 10
269.141112
 20
149.141136
 30
0.0
  0
LWPOLYLINE
  5
22b
100
AcDbEntity
  8
0
 62
7
100
AcDbPolyline
 90
2
 70
0
 10
49.141112
 20
149.141136
 30
0.0
 10
31.141111
 20
149.141136
 30
0.0
  0
LWPOLYLINE
  5
22c
100
AcDbEntity
  8
0
 62
7
100
AcDbPolyline
 90
2
 70
0
 10
269.141112
 20
131.141143
 30
0.0
 10
251.141111
 20
131.141143
 30
0.0
  0
LWPOLYLINE
  5
22d
100
AcDbEntity
  8
0
 62
7
100
AcDbPolyline
 90
2
 70
0
 10
211.141112
 20
149.141136
 30
0.0
 10
211.141112
 20
131.141143
 30
0.0
  0
LWPOLYLINE
  5
22e
100
AcDbEntity
  8
0
 62
7
100
AcDbPolyline
 90
2
 70
0
 10
169.141112
 20
149.141136
 30
0.0
 10
169.141112
 20
131.141143
 30
0.0
  0
LWPOLYLINE
  5
22f
100
AcDbEntity
  8
0
 62
7
100
AcDbPolyline
 90
2
 70
0
 10
151.141111
 20
149.141136
 30
0.0
 10
169.141112
 20
149.141136
 30
0.0
  0
LWPOLYLINE
  5
230
100
AcDbEntity
  8
0
 62
7
100
AcDbPolyline
 90
2
 70
0
 10
151.141111
 20
131.141143
 30
0.0
 10
151.141111
 20
149.141136
 30
0.0
  0
LWPOLYLINE
  5
231
100
AcDbEntity
  8
0
 62
7
100
AcDbPolyline
 90
2
 70
0
 10
169.141112
 20
131.141143
 30
0.0
 10
151.141111
 20
131.141143
 30
0.0
  0
LWPOLYLINE
  5
232
100
AcDbEntity
  8
0
 62
7
100
AcDbPolyline
 90
2
 70
0
 10
251.141111
 20
131.141143
 30
0.0
 10
251.141111
 20
149.141136
 30
0.0
  0
LWPOLYLINE
  5
233
100
AcDbEntity
  8
0
 62
7
100
AcDbPolyline
 90
2
 70
0
 10
249.141110
 20
149.141136
 30
0.0
 10
249.141110
 20
131.141143
 30
0.0
  0
LWPOLYLINE
  5
234
100
AcDbEntity
  8
0
 62
7
100
AcDbPolyline
 90
2
 70
0
 10
231.141112
 20
149.141136
 30
0.0
 10
249.141110
 20
149.141136
 30
0.0
  0
LWPOLYLINE
  5
235
100
AcDbEntity
  8
0
 62
7
100
AcDbPolyline
 90
2
 70
0
 10
231.141112
 20
131.141143
 30
0.0
 10
231.141112
 20
149.141136
 30
0.0
  0
LWPOLYLINE
  5
236
100
AcDbEntity
  8
0
 62
7
100
AcDbPolyline
 90
2
 70
0
 10
249.141110
 20
131.141143
 30
0.0
 10
231.141112
 20
131.141143
 30
0.0
  0
LWPOLYLINE
  5
237
100
AcDbEntity
  8
0
 62
7
100
AcDbPolyline
 90
2
 70
0
 10
71.141110
 20
149.141136
 30
0.0
 10
71.141110
 20
131.141143
 30
0.0
  0
LWPOLYLINE
  5
238
100
AcDbEntity
  8
0
 62
7
100
AcDbPolyline
 90
2
 70
0
 10
69.141111
 20
131.141143
 30
0.0
 10
69.141111
 20
149.141136
 30
0.0
  0
LWPOLYLINE
  5
239
100
AcDbEntity
  8
0
 62
7
100
AcDbPolyline
 90
2
 70
0
 10
91.141113
 20
131.141143
 30
0.0
 10
109.141110
 20
131.141143
 30
0.0
  0
LWPOLYLINE
  5
23a
100
AcDbEntity
  8
0
 62
7
100
AcDbPolyline
 90
3
 70
0
 10
109.141110
 20
149.141136
 30
0.0
 10
91.141113
 20
149.141136
 30
0.0
 10
91.141113
 20
131.141143
 30
0.0
  0
LWPOLYLINE
  5
23b
100
AcDbEntity
  8
0
 62
7
100
AcDbPolyline
 90
2
 70
0
 10
89.141111
 20
149.141136
 30
0.0
 10
71.141110
 20
149.141136
 30
0.0
  0
LWPOLYLINE
  5
23c
100
AcDbEntity
  8
0
 62
7
100
AcDbPolyline
 90
2
 70
0
 10
171.141111
 20
131.141143
 30
0.0
 10
189.141111
 20
131.141143
 30
0.0
  0
LWPOLYLINE
  5
23d
100
AcDbEntity
  8
0
 62
7
100
AcDbPolyline
 90
3
 70
0
 10
71.141110
 20
131.141143
 30
0.0
 10
89.141111
 20
131.141143
 30
0.0
 10
89.141111
 20
149.141136
 30
0.0
  0
LWPOLYLINE
  5
23e
100
AcDbEntity
  8
0
 62
7
100
AcDbPolyline
 90
2
 70
0
 10
189.141111
 20
149.141136
 30
0.0
 10
171.141111
 20
149.141136
 30
0.0
  0
LWPOLYLINE
  5
23f
100
AcDbEntity
  8
0
 62
7
100
AcDbPolyline
 90
2
 70
0
 10
191.141110
 20
131.141143
 30
0.0
 10
209.141111
 20
131.141143
 30
0.0
  0
LWPOLYLINE
  5
240
100
AcDbEntity
  8
0
 62
7
100
AcDbPolyline
 90
2
 70
0
 10
149.141112
 20
131.141143
 30
0.0
 10
131.141112
 20
131.141143
 30
0.0
  0
LWPOLYLINE
  5
241
100
AcDbEntity
  8
0
 62
7
100
AcDbPolyline
 90
2
 70
0
 10
149.141112
 20
149.141136
 30
0.0
 10
149.141112
 20
131.141143
 30
0.0
  0
LWPOLYLINE
  5
242
100
AcDbEntity
  8
0
 62
7
100
AcDbPolyline
 90
2
 70
0
 10
131.141112
 20
149.141136
 30
0.0
 10
149.141112
 20
149.141136
 30
0.0
  0
LWPOLYLINE
  5
243
100
AcDbEntity
  8
0
 62
7
100
AcDbPolyline
 90
2
 70
0
 10
51.141111
 20
131.141143
 30
0.0
 10
69.141111
 20
131.141143
 30
0.0
  0
LWPOLYLINE
  5
244
100
AcDbEntity
  8
0
 62
7
100
AcDbPolyline
 90
3
 70
0
 10
69.141111
 20
149.141136
 30
0.0
 10
51.141111
 20
149.141136
 30
0.0
 10
51.141111
 20
131.141143
 30
0.0
  0
LWPOLYLINE
  5
245
100
AcDbEntity
  8
0
 62
7
100
AcDbPolyline
 90
3
 70
0
 10
129.141110
 20
131.141143
 30
0.0
 10
129.141110
 20
149.141136
 30
0.0
 10
111.141112
 20
149.141136
 30
0.0
  0
LWPOLYLINE
  5
246
100
AcDbEntity
  8
0
 62
7
100
AcDbPolyline
 90
4
 70
0
 10
209.141111
 20
131.141143
 30
0.0
 10
209.141111
 20
149.141136
 30
0.0
 10
191.141110
 20
149.141136
 30
0.0
 10
191.141110
 20
131.141143
 30
0.0
  0
LWPOLYLINE
  5
247
100
AcDbEntity
  8
0
 62
7
100
AcDbPolyline
 90
2
 70
0
 10
49.141112
 20
131.141143
 30
0.0
 10
49.141112
 20
149.141136
 30
0.0
  0
LWPOLYLINE
  5
248
100
AcDbEntity
  8
0
 62
7
100
AcDbPolyline
 90
3
 70
0
 10
229.141110
 20
131.141143
 30
0.0
 10
229.141110
 20
149.141136
 30
0.0
 10
211.141112
 20
149.141136
 30
0.0
  0
LWPOLYLINE
  5
249
100
AcDbEntity
  8
0
 62
7
100
AcDbPolyline
 90
2
 70
0
 10
31.141111
 20
131.141143
 30
0.0
 10
49.141112
 20
131.141143
 30
0.0
  0
LWPOLYLINE
  5
24a
100
AcDbEntity
  8
0
 62
7
100
AcDbPolyline
 90
2
 70
0
 10
111.141112
 20
169.141132
 30
0.0
 10
111.141112
 20
151.141132
 30
0.0
  0
LWPOLYLINE
  5
24b
100
AcDbEntity
  8
0
 62
7
100
AcDbPolyline
 90
2
 70
0
 10
129.141110
 20
151.141132
 30
0.0
 10
111.141112
 20
151.141132
 30
0.0
  0
LWPOLYLINE
  5
24c
100
AcDbEntity
  8
0
 62
7
100
AcDbPolyline
 90
3
 70
0
 10
129.141110
 20
151.141132
 30
0.0
 10
129.141110
 20
169.141132
 30
0.0
 10
111.141112
 20
169.141132
 30
0.0
  0
LWPOLYLINE
  5
24d
100
AcDbEntity
  8
0
 62
7
100
AcDbPolyline
 90
2
 70
0
 10
71.141110
 20
151.141132
 30
0.0
 10
89.141111
 20
151.141132
 30
0.0
  0
LWPOLYLINE
  5
24e
100
AcDbEntity
  8
0
 62
7
100
AcDbPolyline
 90
2
 70
0
 10
249.141110
 20
151.141132
 30
0.0
 10
231.141112
 20
151.141132
 30
0.0
  0
LWPOLYLINE
  5
24f
100
AcDbEntity
  8
0
 62
7
100
AcDbPolyline
 90
2
 70
0
 10
149.141112
 20
151.141132
 30
0.0
 10
131.141112
 20
151.141132
 30
0.0
  0
LWPOLYLINE
  5
250
100
AcDbEntity
  8
0
 62
7
100
AcDbPolyline
 90
2
 70
0
 10
169.141112
 20
169.141132
 30
0.0
 10
169.141112
 20
151.141132
 30
0.0
  0
LWPOLYLINE
  5
251
100
AcDbEntity
  8
0
 62
7
100
AcDbPolyline
 90
2
 70
0
 10
31.141111
 20
169.141132
 30
0.0
 10
31.141111
 20
151.141132
 30
0.0
  0
LWPOLYLINE
  5
252
100
AcDbEntity
  8
0
 62
7
100
AcDbPolyline
 90
2
 70
0
 10
191.141110
 20
169.141132
 30
0.0
 10
191.141110
 20
151.141132
 30
0.0
  0
LWPOLYLINE
  5
253
100
AcDbEntity
  8
0
 62
7
100
AcDbPolyline
 90
2
 70
0
 10
89.141111
 20
169.141132
 30
0.0
 10
71.141110
 20
169.141132
 30
0.0
  0
LWPOLYLINE
  5
254
100
AcDbEntity
  8
0
 62
7
100
AcDbPolyline
 90
2
 70
0
 10
171.141111
 20
151.141132
 30
0.0
 10
189.141111
 20
151.141132
 30
0.0
  0
LWPOLYLINE
  5
255
100
AcDbEntity
  8
0
 62
7
100
AcDbPolyline
 90
2
 70
0
 10
89.141111
 20
151.141132
 30
0.0
 10
89.141111
 20
169.141132
 30
0.0
  0
LWPOLYLINE
  5
256
100
AcDbEntity
  8
0
 62
7
100
AcDbPolyline
 90
2
 70
0
 10
71.141110
 20
169.141132
 30
0.0
 10
71.141110
 20
151.141132
 30
0.0
  0
LWPOLYLINE
  5
257
100
AcDbEntity
  8
0
 62
7
100
AcDbPolyline
 90
2
 70
0
 10
251.141111
 20
151.141132
 30
0.0
 10
251.141111
 20
169.141132
 30
0.0
  0
LWPOLYLINE
  5
258
100
AcDbEntity
  8
0
 62
7
100
AcDbPolyline
 90
2
 70
0
 10
51.141111
 20
151.141132
 30
0.0
 10
69.141111
 20
151.141132
 30
0.0
  0
LWPOLYLINE
  5
259
100
AcDbEntity
  8
0
 62
7
100
AcDbPolyline
 90
2
 70
0
 10
149.141112
 20
169.141132
 30
0.0
 10
149.141112
 20
151.141132
 30
0.0
  0
LWPOLYLINE
  5
25a
100
AcDbEntity
  8
0
 62
7
100
AcDbPolyline
 90
4
 70
0
 10
191.141110
 20
151.141132
 30
0.0
 10
209.141111
 20
151.141132
 30
0.0
 10
209.141111
 20
169.141132
 30
0.0
 10
191.141110
 20
169.141132
 30
0.0
  0
LWPOLYLINE
  5
25b
100
AcDbEntity
  8
0
 62
7
100
AcDbPolyline
 90
2
 70
0
 10
151.141111
 20
169.141132
 30
0.0
 10
169.141112
 20
169.141132
 30
0.0
  0
LWPOLYLINE
  5
25c
100
AcDbEntity
  8
0
 62
7
100
AcDbPolyline
 90
2
 70
0
 10
151.141111
 20
151.141132
 30
0.0
 10
151.141111
 20
169.141132
 30
0.0
  0
LWPOLYLINE
  5
25d
100
AcDbEntity
  8
0
 62
7
100
AcDbPolyline
 90
2
 70
0
 10
169.141112
 20
151.141132
 30
0.0
 10
151.141111
 20
151.141132
 30
0.0
  0
LWPOLYLINE
  5
25e
100
AcDbEntity
  8
0
 62
7
100
AcDbPolyline
 90
5
 70
0
 10
91.141113
 20
151.141132
 30
0.0
 10
109.141110
 20
151.141132
 30
0.0
 10
109.141110
 20
169.141132
 30
0.0
 10
91.141113
 20
169.141132
 30
0.0
 10
91.141113
 20
151.141132
 30
0.0
  0
LWPOLYLINE
  5
25f
100
AcDbEntity
  8
0
 62
7
100
AcDbPolyline
 90
2
 70
0
 10
49.141112
 20
151.141132
 30
0.0
 10
49.141112
 20
169.141132
 30
0.0
  0
LWPOLYLINE
  5
260
100
AcDbEntity
  8
0
 62
7
100
AcDbPolyline
 90
2
 70
0
 10
171.141111
 20
169.141132
 30
0.0
 10
171.141111
 20
151.141132
 30
0.0
  0
LWPOLYLINE
  5
261
100
AcDbEntity
  8
0
 62
7
100
AcDbPolyline
 90
2
 70
0
 10
131.141112
 20
169.141132
 30
0.0
 10
149.141112
 20
169.141132
 30
0.0
  0
LWPOLYLINE
  5
262
100
AcDbEntity
  8
0
 62
7
100
AcDbPolyline
 90
2
 70
0
 10
131.141112
 20
151.141132
 30
0.0
 10
131.141112
 20
169.141132
 30
0.0
  0
LWPOLYLINE
  5
263
100
AcDbEntity
  8
0
 62
7
100
AcDbPolyline
 90
2
 70
0
 10
31.141111
 20
151.141132
 30
0.0
 10
49.141112
 20
151.141132
 30
0.0
  0
LWPOLYLINE
  5
264
100
AcDbEntity
  8
0
 62
7
100
AcDbPolyline
 90
3
 70
0
 10
189.141111
 20
151.141132
 30
0.0
 10
189.141111
 20
169.141132
 30
0.0
 10
171.141111
 20
169.141132
 30
0.0
  0
LWPOLYLINE
  5
265
100
AcDbEntity
  8
0
 62
7
100
AcDbPolyline
 90
2
 70
0
 10
211.141112
 20
151.141132
 30
0.0
 10
229.141110
 20
151.141132
 30
0.0
  0
LWPOLYLINE
  5
266
100
AcDbEntity
  8
0
 62
7
100
AcDbPolyline
 90
4
 70
0
 10
69.141111
 20
151.141132
 30
0.0
 10
69.141111
 20
169.141132
 30
0.0
 10
51.141111
 20
169.141132
 30
0.0
 10
51.141111
 20
151.141132
 30
0.0
  0
LWPOLYLINE
  5
267
100
AcDbEntity
  8
0
 62
7
100
AcDbPolyline
 90
2
 70
0
 10
229.141110
 20
169.141132
 30
0.0
 10
211.141112
 20
169.141132
 30
0.0
  0
LWPOLYLINE
  5
268
100
AcDbEntity
  8
0
 62
7
100
AcDbPolyline
 90
2
 70
0
 10
269.141112
 20
169.141132
 30
0.0
 10
269.141112
 20
151.141132
 30
0.0
  0
LWPOLYLINE
  5
269
100
AcDbEntity
  8
0
 62
7
100
AcDbPolyline
 90
2
 70
0
 10
251.141111
 20
169.141132
 30
0.0
 10
269.141112
 20
169.141132
 30
0.0
  0
LWPOLYLINE
  5
26a
100
AcDbEntity
  8
0
 62
7
100
AcDbPolyline
 90
2
 70
0
 10
269.141112
 20
151.141132
 30
0.0
 10
251.141111
 20
151.141132
 30
0.0
  0
LWPOLYLINE
  5
26b
100
AcDbEntity
  8
0
 62
7
100
AcDbPolyline
 90
2
 70
0
 10
249.141110
 20
169.141132
 30
0.0
 10
249.141110
 20
151.141132
 30
0.0
  0
LWPOLYLINE
  5
26c
100
AcDbEntity
  8
0
 62
7
100
AcDbPolyline
 90
2
 70
0
 10
231.141112
 20
169.141132
 30
0.0
 10
249.141110
 20
169.141132
 30
0.0
  0
LWPOLYLINE
  5
26d
100
AcDbEntity
  8
0
 62
7
100
AcDbPolyline
 90
2
 70
0
 10
231.141112
 20
151.141132
 30
0.0
 10
231.141112
 20
169.141132
 30
0.0
  0
LWPOLYLINE
  5
26e
100
AcDbEntity
  8
0
 62
7
100
AcDbPolyline
 90
2
 70
0
 10
49.141112
 20
169.141132
 30
0.0
 10
31.141111
 20
169.141132
 30
0.0
  0
LWPOLYLINE
  5
26f
100
AcDbEntity
  8
0
 62
7
100
AcDbPolyline
 90
2
 70
0
 10
229.141110
 20
151.141132
 30
0.0
 10
229.141110
 20
169.141132
 30
0.0
  0
LWPOLYLINE
  5
270
100
AcDbEntity
  8
0
 62
7
100
AcDbPolyline
 90
2
 70
0
 10
211.141112
 20
169.141132
 30
0.0
 10
211.141112
 20
151.141132
 30
0.0
  0
LWPOLYLINE
  5
271
100
AcDbEntity
  8
0
 62
7
100
AcDbPolyline
 90
2
 70
0
 10
249.141110
 20
171.141131
 30
0.0
 10
231.141112
 20
171.141131
 30
0.0
  0
LWPOLYLINE
  5
272
100
AcDbEntity
  8
0
 62
7
100
AcDbPolyline
 90
2
 70
0
 10
249.141110
 20
189.141132
 30
0.0
 10
249.141110
 20
171.141131
 30
0.0
  0
LWPOLYLINE
  5
273
100
AcDbEntity
  8
0
 62
7
100
AcDbPolyline
 90
2
 70
0
 10
151.141111
 20
171.141131
 30
0.0
 10
151.141111
 20
189.141132
 30
0.0
  0
LWPOLYLINE
  5
274
100
AcDbEntity
  8
0
 62
7
100
AcDbPolyline
 90
2
 70
0
 10
251.141111
 20
171.141131
 30
0.0
 10
251.141111
 20
189.141132
 30
0.0
  0
LWPOLYLINE
  5
275
100
AcDbEntity
  8
0
 62
7
100
AcDbPolyline
 90
5
 70
0
 10
171.141111
 20
171.141131
 30
0.0
 10
189.141111
 20
171.141131
 30
0.0
 10
189.141111
 20
189.141132
 30
0.0
 10
171.141111
 20
189.141132
 30
0.0
 10
171.141111
 20
171.141131
 30
0.0
  0
LWPOLYLINE
  5
276
100
AcDbEntity
  8
0
 62
7
100
AcDbPolyline
 90
2
 70
0
 10
269.141112
 20
189.141132
 30
0.0
 10
269.141112
 20
171.141131
 30
0.0
  0
LWPOLYLINE
  5
277
100
AcDbEntity
  8
0
 62
7
100
AcDbPolyline
 90
5
 70
0
 10
211.141112
 20
171.141131
 30
0.0
 10
229.141110
 20
171.141131
 30
0.0
 10
229.141110
 20
189.141132
 30
0.0
 10
211.141112
 20
189.141132
 30
0.0
 10
211.141112
 20
171.141131
 30
0.0
  0
LWPOLYLINE
  5
278
100
AcDbEntity
  8
0
 62
7
100
AcDbPolyline
 90
2
 70
0
 10
91.141113
 20
171.141131
 30
0.0
 10
109.141110
 20
171.141131
 30
0.0
  0
LWPOLYLINE
  5
279
100
AcDbEntity
  8
0
 62
7
100
AcDbPolyline
 90
2
 70
0
 10
69.141111
 20
189.141132
 30
0.0
 10
51.141111
 20
189.141132
 30
0.0
  0
LWPOLYLINE
  5
27a
100
AcDbEntity
  8
0
 62
7
100
AcDbPolyline
 90
2
 70
0
 10
169.141112
 20
189.141132
 30
0.0
 10
169.141112
 20
171.141131
 30
0.0
  0
LWPOLYLINE
  5
27b
100
AcDbEntity
  8
0
 62
7
100
AcDbPolyline
 90
2
 70
0
 10
151.141111
 20
189.141132
 30
0.0
 10
169.141112
 20
189.141132
 30
0.0
  0
LWPOLYLINE
  5
27c
100
AcDbEntity
  8
0
 62
7
100
AcDbPolyline
 90
2
 70
0
 10
169.141112
 20
171.141131
 30
0.0
 10
151.141111
 20
171.141131
 30
0.0
  0
LWPOLYLINE
  5
27d
100
AcDbEntity
  8
0
 62
7
100
AcDbPolyline
 90
4
 70
0
 10
109.141110
 20
171.141131
 30
0.0
 10
109.141110
 20
189.141132
 30
0.0
 10
91.141113
 20
189.141132
 30
0.0
 10
91.141113
 20
171.141131
 30
0.0
  0
LWPOLYLINE
  5
27e
100
AcDbEntity
  8
0
 62
7
100
AcDbPolyline
 90
2
 70
0
 10
251.141111
 20
189.141132
 30
0.0
 10
269.141112
 20
189.141132
 30
0.0
  0
LWPOLYLINE
  5
27f
100
AcDbEntity
  8
0
 62
7
100
AcDbPolyline
 90
2
 70
0
 10
231.141112
 20
189.141132
 30
0.0
 10
249.141110
 20
189.141132
 30
0.0
  0
LWPOLYLINE
  5
280
100
AcDbEntity
  8
0
 62
7
100
AcDbPolyline
 90
2
 70
0
 10
231.141112
 20
171.141131
 30
0.0
 10
231.141112
 20
189.141132
 30
0.0
  0
LWPOLYLINE
  5
281
100
AcDbEntity
  8
0
 62
7
100
AcDbPolyline
 90
2
 70
0
 10
269.141112
 20
171.141131
 30
0.0
 10
251.141111
 20
171.141131
 30
0.0
  0
LWPOLYLINE
  5
282
100
AcDbEntity
  8
0
 62
7
100
AcDbPolyline
 90
5
 70
0
 10
191.141110
 20
171.141131
 30
0.0
 10
209.141111
 20
171.141131
 30
0.0
 10
209.141111
 20
189.141132
 30
0.0
 10
191.141110
 20
189.141132
 30
0.0
 10
191.141110
 20
171.141131
 30
0.0
  0
LWPOLYLINE
  5
283
100
AcDbEntity
  8
0
 62
7
100
AcDbPolyline
 90
3
 70
0
 10
51.141111
 20
171.141131
 30
0.0
 10
69.141111
 20
171.141131
 30
0.0
 10
69.141111
 20
189.141132
 30
0.0
  0
LWPOLYLINE
  5
284
100
AcDbEntity
  8
0
 62
7
100
AcDbPolyline
 90
2
 70
0
 10
51.141111
 20
189.141132
 30
0.0
 10
51.141111
 20
171.141131
 30
0.0
  0
LWPOLYLINE
  5
285
100
AcDbEntity
  8
0
 62
7
100
AcDbPolyline
 90
2
 70
0
 10
149.141112
 20
189.141132
 30
0.0
 10
149.141112
 20
171.141131
 30
0.0
  0
LWPOLYLINE
  5
286
100
AcDbEntity
  8
0
 62
7
100
AcDbPolyline
 90
2
 70
0
 10
131.141112
 20
189.141132
 30
0.0
 10
149.141112
 20
189.141132
 30
0.0
  0
LWPOLYLINE
  5
287
100
AcDbEntity
  8
0
 62
7
100
AcDbPolyline
 90
2
 70
0
 10
131.141112
 20
171.141131
 30
0.0
 10
131.141112
 20
189.141132
 30
0.0
  0
LWPOLYLINE
  5
288
100
AcDbEntity
  8
0
 62
7
100
AcDbPolyline
 90
2
 70
0
 10
149.141112
 20
171.141131
 30
0.0
 10
131.141112
 20
171.141131
 30
0.0
  0
LWPOLYLINE
  5
289
100
AcDbEntity
  8
0
 62
7
100
AcDbPolyline
 90
2
 70
0
 10
129.141110
 20
171.141131
 30
0.0
 10
129.141110
 20
189.141132
 30
0.0
  0
LWPOLYLINE
  5
28a
100
AcDbEntity
  8
0
 62
7
100
AcDbPolyline
 90
2
 70
0
 10
111.141112
 20
189.141132
 30
0.0
 10
111.141112
 20
171.141131
 30
0.0
  0
LWPOLYLINE
  5
28b
100
AcDbEntity
  8
0
 62
7
100
AcDbPolyline
 90
2
 70
0
 10
129.141110
 20
171.141131
 30
0.0
 10
111.141112
 20
171.141131
 30
0.0
  0
LWPOLYLINE
  5
28c
100
AcDbEntity
  8
0
 62
7
100
AcDbPolyline
 90
2
 70
0
 10
129.141110
 20
189.141132
 30
0.0
 10
111.141112
 20
189.141132
 30
0.0
  0
LWPOLYLINE
  5
28d
100
AcDbEntity
  8
0
 62
7
100
AcDbPolyline
 90
3
 70
0
 10
49.141112
 20
171.141131
 30
0.0
 10
49.141112
 20
189.141132
 30
0.0
 10
31.141111
 20
189.141132
 30
0.0
  0
LWPOLYLINE
  5
28e
100
AcDbEntity
  8
0
 62
7
100
AcDbPolyline
 90
2
 70
0
 10
89.141111
 20
171.141131
 30
0.0
 10
89.141111
 20
189.141132
 30
0.0
  0
LWPOLYLINE
  5
28f
100
AcDbEntity
  8
0
 62
7
100
AcDbPolyline
 90
2
 70
0
 10
31.141111
 20
171.141131
 30
0.0
 10
49.141112
 20
171.141131
 30
0.0
  0
LWPOLYLINE
  5
290
100
AcDbEntity
  8
0
 62
7
100
AcDbPolyline
 90
2
 70
0
 10
31.141111
 20
189.141132
 30
0.0
 10
31.141111
 20
171.141131
 30
0.0
  0
LWPOLYLINE
  5
291
100
AcDbEntity
  8
0
 62
7
100
AcDbPolyline
 90
3
 70
0
 10
71.141110
 20
189.141132
 30
0.0
 10
71.141110
 20
171.141131
 30
0.0
 10
89.141111
 20
171.141131
 30
0.0
  0
LWPOLYLINE
  5
292
100
AcDbEntity
  8
0
 62
7
100
AcDbPolyline
 90
2
 70
0
 10
89.141111
 20
189.141132
 30
0.0
 10
71.141110
 20
189.141132
 30
0.0
  0
LWPOLYLINE
  5
293
100
AcDbEntity
  8
0
 62
7
100
AcDbPolyline
 90
2
 70
0
 10
191.141110
 20
191.141134
 30
0.0
 10
209.141111
 20
191.141134
 30
0.0
  0
LWPOLYLINE
  5
294
100
AcDbEntity
  8
0
 62
7
100
AcDbPolyline
 90
5
 70
0
 10
171.141111
 20
191.141134
 30
0.0
 10
189.141111
 20
191.141134
 30
0.0
 10
189.141111
 20
209.141131
 30
0.0
 10
171.141111
 20
209.141131
 30
0.0
 10
171.141111
 20
191.141134
 30
0.0
  0
LWPOLYLINE
  5
295
100
AcDbEntity
  8
0
 62
7
100
AcDbPolyline
 90
2
 70
0
 10
129.141110
 20
191.141134
 30
0.0
 10
129.141110
 20
209.141131
 30
0.0
  0
LWPOLYLINE
  5
296
100
AcDbEntity
  8
0
 62
7
100
AcDbPolyline
 90
2
 70
0
 10
91.141113
 20
191.141134
 30
0.0
 10
109.141110
 20
191.141134
 30
0.0
  0
LWPOLYLINE
  5
297
100
AcDbEntity
  8
0
 62
7
100
AcDbPolyline
 90
2
 70
0
 10
149.141112
 20
191.141134
 30
0.0
 10
131.141112
 20
191.141134
 30
0.0
  0
LWPOLYLINE
  5
298
100
AcDbEntity
  8
0
 62
7
100
AcDbPolyline
 90
2
 70
0
 10
209.141111
 20
191.141134
 30
0.0
 10
209.141111
 20
209.141131
 30
0.0
  0
LWPOLYLINE
  5
299
100
AcDbEntity
  8
0
 62
7
100
AcDbPolyline
 90
5
 70
0
 10
71.141110
 20
191.141134
 30
0.0
 10
89.141111
 20
191.141134
 30
0.0
 10
89.141111
 20
209.141131
 30
0.0
 10
71.141110
 20
209.141131
 30
0.0
 10
71.141110
 20
191.141134
 30
0.0
  0
LWPOLYLINE
  5
29a
100
AcDbEntity
  8
0
 62
7
100
AcDbPolyline
 90
5
 70
0
 10
31.141111
 20
191.141134
 30
0.0
 10
49.141112
 20
191.141134
 30
0.0
 10
49.141112
 20
209.141131
 30
0.0
 10
31.141111
 20
209.141131
 30
0.0
 10
31.141111
 20
191.141134
 30
0.0
  0
LWPOLYLINE
  5
29b
100
AcDbEntity
  8
0
 62
7
100
AcDbPolyline
 90
2
 70
0
 10
149.141112
 20
209.141131
 30
0.0
 10
149.141112
 20
191.141134
 30
0.0
  0
LWPOLYLINE
  5
29c
100
AcDbEntity
  8
0
 62
7
100
AcDbPolyline
 90
2
 70
0
 10
51.141111
 20
191.141134
 30
0.0
 10
69.141111
 20
191.141134
 30
0.0
  0
LWPOLYLINE
  5
29d
100
AcDbEntity
  8
0
 62
7
100
AcDbPolyline
 90
2
 70
0
 10
231.141112
 20
191.141134
 30
0.0
 10
231.141112
 20
209.141131
 30
0.0
  0
LWPOLYLINE
  5
29e
100
AcDbEntity
  8
0
 62
7
100
AcDbPolyline
 90
2
 70
0
 10
249.141110
 20
191.141134
 30
0.0
 10
231.141112
 20
191.141134
 30
0.0
  0
LWPOLYLINE
  5
29f
100
AcDbEntity
  8
0
 62
7
100
AcDbPolyline
 90
2
 70
0
 10
169.141112
 20
209.141131
 30
0.0
 10
169.141112
 20
191.141134
 30
0.0
  0
LWPOLYLINE
  5
2a0
100
AcDbEntity
  8
0
 62
7
100
AcDbPolyline
 90
2
 70
0
 10
151.141111
 20
209.141131
 30
0.0
 10
169.141112
 20
209.141131
 30
0.0
  0
LWPOLYLINE
  5
2a1
100
AcDbEntity
  8
0
 62
7
100
AcDbPolyline
 90
2
 70
0
 10
151.141111
 20
191.141134
 30
0.0
 10
151.141111
 20
209.141131
 30
0.0
  0
LWPOLYLINE
  5
2a2
100
AcDbEntity
  8
0
 62
7
100
AcDbPolyline
 90
2
 70
0
 10
169.141112
 20
191.141134
 30
0.0
 10
151.141111
 20
191.141134
 30
0.0
  0
LWPOLYLINE
  5
2a3
100
AcDbEntity
  8
0
 62
7
100
AcDbPolyline
 90
2
 70
0
 10
229.141110
 20
191.141134
 30
0.0
 10
229.141110
 20
209.141131
 30
0.0
  0
LWPOLYLINE
  5
2a4
100
AcDbEntity
  8
0
 62
7
100
AcDbPolyline
 90
2
 70
0
 10
251.141111
 20
209.141131
 30
0.0
 10
269.141112
 20
209.141131
 30
0.0
  0
LWPOLYLINE
  5
2a5
100
AcDbEntity
  8
0
 62
7
100
AcDbPolyline
 90
2
 70
0
 10
211.141112
 20
209.141131
 30
0.0
 10
211.141112
 20
191.141134
 30
0.0
  0
LWPOLYLINE
  5
2a6
100
AcDbEntity
  8
0
 62
7
100
AcDbPolyline
 90
2
 70
0
 10
129.141110
 20
209.141131
 30
0.0
 10
111.141112
 20
209.141131
 30
0.0
  0
LWPOLYLINE
  5
2a7
100
AcDbEntity
  8
0
 62
7
100
AcDbPolyline
 90
2
 70
0
 10
131.141112
 20
209.141131
 30
0.0
 10
149.141112
 20
209.141131
 30
0.0
  0
LWPOLYLINE
  5
2a8
100
AcDbEntity
  8
0
 62
7
100
AcDbPolyline
 90
2
 70
0
 10
191.141110
 20
209.141131
 30
0.0
 10
191.141110
 20
191.141134
 30
0.0
  0
LWPOLYLINE
  5
2a9
100
AcDbEntity
  8
0
 62
7
100
AcDbPolyline
 90
2
 70
0
 10
211.141112
 20
191.141134
 30
0.0
 10
229.141110
 20
191.141134
 30
0.0
  0
LWPOLYLINE
  5
2aa
100
AcDbEntity
  8
0
 62
7
100
AcDbPolyline
 90
2
 70
0
 10
209.141111
 20
209.141131
 30
0.0
 10
191.141110
 20
209.141131
 30
0.0
  0
LWPOLYLINE
  5
2ab
100
AcDbEntity
  8
0
 62
7
100
AcDbPolyline
 90
2
 70
0
 10
269.141112
 20
209.141131
 30
0.0
 10
269.141112
 20
191.141134
 30
0.0
  0
LWPOLYLINE
  5
2ac
100
AcDbEntity
  8
0
 62
7
100
AcDbPolyline
 90
2
 70
0
 10
251.141111
 20
191.141134
 30
0.0
 10
251.141111
 20
209.141131
 30
0.0
  0
LWPOLYLINE
  5
2ad
100
AcDbEntity
  8
0
 62
7
100
AcDbPolyline
 90
2
 70
0
 10
269.141112
 20
191.141134
 30
0.0
 10
251.141111
 20
191.141134
 30
0.0
  0
LWPOLYLINE
  5
2ae
100
AcDbEntity
  8
0
 62
7
100
AcDbPolyline
 90
2
 70
0
 10
249.141110
 20
209.141131
 30
0.0
 10
249.141110
 20
191.141134
 30
0.0
  0
LWPOLYLINE
  5
2af
100
AcDbEntity
  8
0
 62
7
100
AcDbPolyline
 90
2
 70
0
 10
69.141111
 20
191.141134
 30
0.0
 10
69.141111
 20
209.141131
 30
0.0
  0
LWPOLYLINE
  5
2b0
100
AcDbEntity
  8
0
 62
7
100
AcDbPolyline
 90
2
 70
0
 10
109.141110
 20
191.141134
 30
0.0
 10
109.141110
 20
209.141131
 30
0.0
  0
LWPOLYLINE
  5
2b1
100
AcDbEntity
  8
0
 62
7
100
AcDbPolyline
 90
2
 70
0
 10
111.141112
 20
209.141131
 30
0.0
 10
111.141112
 20
191.141134
 30
0.0
  0
LWPOLYLINE
  5
2b2
100
AcDbEntity
  8
0
 62
7
100
AcDbPolyline
 90
2
 70
0
 10
129.141110
 20
191.141134
 30
0.0
 10
111.141112
 20
191.141134
 30
0.0
  0
LWPOLYLINE
  5
2b3
100
AcDbEntity
  8
0
 62
7
100
AcDbPolyline
 90
2
 70
0
 10
229.141110
 20
209.141131
 30
0.0
 10
211.141112
 20
209.141131
 30
0.0
  0
LWPOLYLINE
  5
2b4
100
AcDbEntity
  8
0
 62
7
100
AcDbPolyline
 90
3
 70
0
 10
69.141111
 20
209.141131
 30
0.0
 10
51.141111
 20
209.141131
 30
0.0
 10
51.141111
 20
191.141134
 30
0.0
  0
LWPOLYLINE
  5
2b5
100
AcDbEntity
  8
0
 62
7
100
AcDbPolyline
 90
2
 70
0
 10
131.141112
 20
191.141134
 30
0.0
 10
131.141112
 20
209.141131
 30
0.0
  0
LWPOLYLINE
  5
2b6
100
AcDbEntity
  8
0
 62
7
100
AcDbPolyline
 90
2
 70
0
 10
231.141112
 20
209.141131
 30
0.0
 10
249.141110
 20
209.141131
 30
0.0
  0
LWPOLYLINE
  5
2b7
100
AcDbEntity
  8
0
 62
7
100
AcDbPolyline
 90
2
 70
0
 10
91.141113
 20
209.141131
 30
0.0
 10
91.141113
 20
191.141134
 30
0.0
  0
LWPOLYLINE
  5
2b8
100
AcDbEntity
  8
0
 62
7
100
AcDbPolyline
 90
2
 70
0
 10
109.141110
 20
209.141131
 30
0.0
 10
91.141113
 20
209.141131
 30
0.0
  0
LWPOLYLINE
  5
2b9
100
AcDbEntity
  8
0
 62
7
100
AcDbPolyline
 90
2
 70
0
 10
149.141112
 20
229.141131
 30
0.0
 10
149.141112
 20
211.141133
 30
0.0
  0
LWPOLYLINE
  5
2ba
100
AcDbEntity
  8
0
 62
7
100
AcDbPolyline
 90
2
 70
0
 10
269.141112
 20
229.141131
 30
0.0
 10
269.141112
 20
211.141133
 30
0.0
  0
LWPOLYLINE
  5
2bb
100
AcDbEntity
  8
0
 62
7
100
AcDbPolyline
 90
2
 70
0
 10
251.141111
 20
229.141131
 30
0.0
 10
269.141112
 20
229.141131
 30
0.0
  0
LWPOLYLINE
  5
2bc
100
AcDbEntity
  8
0
 62
7
100
AcDbPolyline
 90
2
 70
0
 10
251.141111
 20
211.141133
 30
0.0
 10
251.141111
 20
229.141131
 30
0.0
  0
LWPOLYLINE
  5
2bd
100
AcDbEntity
  8
0
 62
7
100
AcDbPolyline
 90
2
 70
0
 10
269.141112
 20
211.141133
 30
0.0
 10
251.141111
 20
211.141133
 30
0.0
  0
LWPOLYLINE
  5
2be
100
AcDbEntity
  8
0
 62
7
100
AcDbPolyline
 90
2
 70
0
 10
191.141110
 20
211.141133
 30
0.0
 10
209.141111
 20
211.141133
 30
0.0
  0
LWPOLYLINE
  5
2bf
100
AcDbEntity
  8
0
 62
7
100
AcDbPolyline
 90
2
 70
0
 10
211.141112
 20
229.141131
 30
0.0
 10
211.141112
 20
211.141133
 30
0.0
  0
LWPOLYLINE
  5
2c0
100
AcDbEntity
  8
0
 62
7
100
AcDbPolyline
 90
2
 70
0
 10
249.141110
 20
229.141131
 30
0.0
 10
249.141110
 20
211.141133
 30
0.0
  0
LWPOLYLINE
  5
2c1
100
AcDbEntity
  8
0
 62
7
100
AcDbPolyline
 90
2
 70
0
 10
231.141112
 20
229.141131
 30
0.0
 10
249.141110
 20
229.141131
 30
0.0
  0
LWPOLYLINE
  5
2c2
100
AcDbEntity
  8
0
 62
7
100
AcDbPolyline
 90
2
 70
0
 10
231.141112
 20
211.141133
 30
0.0
 10
231.141112
 20
229.141131
 30
0.0
  0
LWPOLYLINE
  5
2c3
100
AcDbEntity
  8
0
 62
7
100
AcDbPolyline
 90
2
 70
0
 10
249.141110
 20
211.141133
 30
0.0
 10
231.141112
 20
211.141133
 30
0.0
  0
LWPOLYLINE
  5
2c4
100
AcDbEntity
  8
0
 62
7
100
AcDbPolyline
 90
5
 70
0
 10
71.141110
 20
211.141133
 30
0.0
 10
89.141111
 20
211.141133
 30
0.0
 10
89.141111
 20
229.141131
 30
0.0
 10
71.141110
 20
229.141131
 30
0.0
 10
71.141110
 20
211.141133
 30
0.0
  0
LWPOLYLINE
  5
2c5
100
AcDbEntity
  8
0
 62
7
100
AcDbPolyline
 90
3
 70
0
 10
129.141110
 20
229.141131
 30
0.0
 10
111.141112
 20
229.141131
 30
0.0
 10
111.141112
 20
211.141133
 30
0.0
  0
LWPOLYLINE
  5
2c6
100
AcDbEntity
  8
0
 62
7
100
AcDbPolyline
 90
2
 70
0
 10
129.141110
 20
211.141133
 30
0.0
 10
111.141112
 20
211.141133
 30
0.0
  0
LWPOLYLINE
  5
2c7
100
AcDbEntity
  8
0
 62
7
100
AcDbPolyline
 90
2
 70
0
 10
129.141110
 20
211.141133
 30
0.0
 10
129.141110
 20
229.141131
 30
0.0
  0
LWPOLYLINE
  5
2c8
100
AcDbEntity
  8
0
 62
7
100
AcDbPolyline
 90
2
 70
0
 10
51.141111
 20
211.141133
 30
0.0
 10
69.141111
 20
211.141133
 30
0.0
  0
LWPOLYLINE
  5
2c9
100
AcDbEntity
  8
0
 62
7
100
AcDbPolyline
 90
2
 70
0
 10
171.141111
 20
229.141131
 30
0.0
 10
171.141111
 20
211.141133
 30
0.0
  0
LWPOLYLINE
  5
2ca
100
AcDbEntity
  8
0
 62
7
100
AcDbPolyline
 90
2
 70
0
 10
109.141110
 20
229.141131
 30
0.0
 10
91.141113
 20
229.141131
 30
0.0
  0
LWPOLYLINE
  5
2cb
100
AcDbEntity
  8
0
 62
7
100
AcDbPolyline
 90
2
 70
0
 10
91.141113
 20
211.141133
 30
0.0
 10
109.141110
 20
211.141133
 30
0.0
  0
LWPOLYLINE
  5
2cc
100
AcDbEntity
  8
0
 62
7
100
AcDbPolyline
 90
2
 70
0
 10
229.141110
 20
211.141133
 30
0.0
 10
229.141110
 20
229.141131
 30
0.0
  0
LWPOLYLINE
  5
2cd
100
AcDbEntity
  8
0
 62
7
100
AcDbPolyline
 90
5
 70
0
 10
31.141111
 20
211.141133
 30
0.0
 10
49.141112
 20
211.141133
 30
0.0
 10
49.141112
 20
229.141131
 30
0.0
 10
31.141111
 20
229.141131
 30
0.0
 10
31.141111
 20
211.141133
 30
0.0
  0
LWPOLYLINE
  5
2ce
100
AcDbEntity
  8
0
 62
7
100
AcDbPolyline
 90
2
 70
0
 10
209.141111
 20
229.141131
 30
0.0
 10
191.141110
 20
229.141131
 30
0.0
  0
LWPOLYLINE
  5
2cf
100
AcDbEntity
  8
0
 62
7
100
AcDbPolyline
 90
2
 70
0
 10
229.141110
 20
229.141131
 30
0.0
 10
211.141112
 20
229.141131
 30
0.0
  0
LWPOLYLINE
  5
2d0
100
AcDbEntity
  8
0
 62
7
100
AcDbPolyline
 90
2
 70
0
 10
151.141111
 20
229.141131
 30
0.0
 10
169.141112
 20
229.141131
 30
0.0
  0
LWPOLYLINE
  5
2d1
100
AcDbEntity
  8
0
 62
7
100
AcDbPolyline
 90
2
 70
0
 10
91.141113
 20
229.141131
 30
0.0
 10
91.141113
 20
211.141133
 30
0.0
  0
LWPOLYLINE
  5
2d2
100
AcDbEntity
  8
0
 62
7
100
AcDbPolyline
 90
2
 70
0
 10
151.141111
 20
211.141133
 30
0.0
 10
151.141111
 20
229.141131
 30
0.0
  0
LWPOLYLINE
  5
2d3
100
AcDbEntity
  8
0
 62
7
100
AcDbPolyline
 90
2
 70
0
 10
69.141111
 20
229.141131
 30
0.0
 10
51.141111
 20
229.141131
 30
0.0
  0
LWPOLYLINE
  5
2d4
100
AcDbEntity
  8
0
 62
7
100
AcDbPolyline
 90
2
 70
0
 10
109.141110
 20
211.141133
 30
0.0
 10
109.141110
 20
229.141131
 30
0.0
  0
LWPOLYLINE
  5
2d5
100
AcDbEntity
  8
0
 62
7
100
AcDbPolyline
 90
2
 70
0
 10
69.141111
 20
211.141133
 30
0.0
 10
69.141111
 20
229.141131
 30
0.0
  0
LWPOLYLINE
  5
2d6
100
AcDbEntity
  8
0
 62
7
100
AcDbPolyline
 90
2
 70
0
 10
51.141111
 20
229.141131
 30
0.0
 10
51.141111
 20
211.141133
 30
0.0
  0
LWPOLYLINE
  5
2d7
100
AcDbEntity
  8
0
 62
7
100
AcDbPolyline
 90
2
 70
0
 10
209.141111
 20
211.141133
 30
0.0
 10
209.141111
 20
229.141131
 30
0.0
  0
LWPOLYLINE
  5
2d8
100
AcDbEntity
  8
0
 62
7
100
AcDbPolyline
 90
2
 70
0
 10
131.141112
 20
229.141131
 30
0.0
 10
149.141112
 20
229.141131
 30
0.0
  0
LWPOLYLINE
  5
2d9
100
AcDbEntity
  8
0
 62
7
100
AcDbPolyline
 90
2
 70
0
 10
131.141112
 20
211.141133
 30
0.0
 10
131.141112
 20
229.141131
 30
0.0
  0
LWPOLYLINE
  5
2da
100
AcDbEntity
  8
0
 62
7
100
AcDbPolyline
 90
2
 70
0
 10
149.141112
 20
211.141133
 30
0.0
 10
131.141112
 20
211.141133
 30
0.0
  0
LWPOLYLINE
  5
2db
100
AcDbEntity
  8
0
 62
7
100
AcDbPolyline
 90
2
 70
0
 10
189.141111
 20
229.141131
 30
0.0
 10
171.141111
 20
229.141131
 30
0.0
  0
LWPOLYLINE
  5
2dc
100
AcDbEntity
  8
0
 62
7
100
AcDbPolyline
 90
2
 70
0
 10
169.141112
 20
211.141133
 30
0.0
 10
151.141111
 20
211.141133
 30
0.0
  0
LWPOLYLINE
  5
2dd
100
AcDbEntity
  8
0
 62
7
100
AcDbPolyline
 90
3
 70
0
 10
171.141111
 20
211.141133
 30
0.0
 10
189.141111
 20
211.141133
 30
0.0
 10
189.141111
 20
229.141131
 30
0.0
  0
LWPOLYLINE
  5
2de
100
AcDbEntity
  8
0
 62
7
100
AcDbPolyline
 90
2
 70
0
 10
211.141112
 20
211.141133
 30
0.0
 10
229.141110
 20
211.141133
 30
0.0
  0
LWPOLYLINE
  5
2df
100
AcDbEntity
  8
0
 62
7
100
AcDbPolyline
 90
2
 70
0
 10
191.141110
 20
229.141131
 30
0.0
 10
191.141110
 20
211.141133
 30
0.0
  0
LWPOLYLINE
  5
2e0
100
AcDbEntity
  8
0
 62
7
100
AcDbPolyline
 90
2
 70
0
 10
169.141112
 20
229.141131
 30
0.0
 10
169.141112
 20
211.141133
 30
0.0
  0
LWPOLYLINE
  5
2e1
100
AcDbEntity
  8
0
 62
7
100
AcDbPolyline
 90
2
 70
0
 10
49.141112
 20
231.141133
 30
0.0
 10
49.141112
 20
249.141133
 30
0.0
  0
LWPOLYLINE
  5
2e2
100
AcDbEntity
  8
0
 62
7
100
AcDbPolyline
 90
2
 70
0
 10
91.141113
 20
249.141133
 30
0.0
 10
91.141113
 20
231.141133
 30
0.0
  0
LWPOLYLINE
  5
2e3
100
AcDbEntity
  8
0
 62
7
100
AcDbPolyline
 90
2
 70
0
 10
109.141110
 20
249.141133
 30
0.0
 10
91.141113
 20
249.141133
 30
0.0
  0
LWPOLYLINE
  5
2e4
100
AcDbEntity
  8
0
 62
7
100
AcDbPolyline
 90
5
 70
0
 10
191.141110
 20
231.141133
 30
0.0
 10
209.141111
 20
231.141133
 30
0.0
 10
209.141111
 20
249.141133
 30
0.0
 10
191.141110
 20
249.141133
 30
0.0
 10
191.141110
 20
231.141133
 30
0.0
  0
LWPOLYLINE
  5
2e5
100
AcDbEntity
  8
0
 62
7
100
AcDbPolyline
 90
2
 70
0
 10
89.141111
 20
249.141133
 30
0.0
 10
71.141110
 20
249.141133
 30
0.0
  0
LWPOLYLINE
  5
2e6
100
AcDbEntity
  8
0
 62
7
100
AcDbPolyline
 90
2
 70
0
 10
171.141111
 20
231.141133
 30
0.0
 10
189.141111
 20
231.141133
 30
0.0
  0
LWPOLYLINE
  5
2e7
100
AcDbEntity
  8
0
 62
7
100
AcDbPolyline
 90
3
 70
0
 10
91.141113
 20
231.141133
 30
0.0
 10
109.141110
 20
231.141133
 30
0.0
 10
109.141110
 20
249.141133
 30
0.0
  0
LWPOLYLINE
  5
2e8
100
AcDbEntity
  8
0
 62
7
100
AcDbPolyline
 90
2
 70
0
 10
211.141112
 20
231.141133
 30
0.0
 10
229.141110
 20
231.141133
 30
0.0
  0
LWPOLYLINE
  5
2e9
100
AcDbEntity
  8
0
 62
7
100
AcDbPolyline
 90
5
 70
0
 10
51.141111
 20
231.141133
 30
0.0
 10
69.141111
 20
231.141133
 30
0.0
 10
69.141111
 20
249.141133
 30
0.0
 10
51.141111
 20
249.141133
 30
0.0
 10
51.141111
 20
231.141133
 30
0.0
  0
LWPOLYLINE
  5
2ea
100
AcDbEntity
  8
0
 62
7
100
AcDbPolyline
 90
2
 70
0
 10
151.141111
 20
249.141133
 30
0.0
 10
169.141112
 20
249.141133
 30
0.0
  0
LWPOLYLINE
  5
2eb
100
AcDbEntity
  8
0
 62
7
100
AcDbPolyline
 90
2
 70
0
 10
89.141111
 20
231.141133
 30
0.0
 10
89.141111
 20
249.141133
 30
0.0
  0
LWPOLYLINE
  5
2ec
100
AcDbEntity
  8
0
 62
7
100
AcDbPolyline
 90
2
 70
0
 10
129.141110
 20
249.141133
 30
0.0
 10
111.141112
 20
249.141133
 30
0.0
  0
LWPOLYLINE
  5
2ed
100
AcDbEntity
  8
0
 62
7
100
AcDbPolyline
 90
2
 70
0
 10
71.141110
 20
231.141133
 30
0.0
 10
89.141111
 20
231.141133
 30
0.0
  0
LWPOLYLINE
  5
2ee
100
AcDbEntity
  8
0
 62
7
100
AcDbPolyline
 90
2
 70
0
 10
71.141110
 20
249.141133
 30
0.0
 10
71.141110
 20
231.141133
 30
0.0
  0
LWPOLYLINE
  5
2ef
100
AcDbEntity
  8
0
 62
7
100
AcDbPolyline
 90
2
 70
0
 10
229.141110
 20
249.141133
 30
0.0
 10
211.141112
 20
249.141133
 30
0.0
  0
LWPOLYLINE
  5
2f0
100
AcDbEntity
  8
0
 62
7
100
AcDbPolyline
 90
2
 70
0
 10
229.141110
 20
231.141133
 30
0.0
 10
229.141110
 20
249.141133
 30
0.0
  0
LWPOLYLINE
  5
2f1
100
AcDbEntity
  8
0
 62
7
100
AcDbPolyline
 90
2
 70
0
 10
211.141112
 20
249.141133
 30
0.0
 10
211.141112
 20
231.141133
 30
0.0
  0
LWPOLYLINE
  5
2f2
100
AcDbEntity
  8
0
 62
7
100
AcDbPolyline
 90
2
 70
0
 10
169.141112
 20
231.141133
 30
0.0
 10
151.141111
 20
231.141133
 30
0.0
  0
LWPOLYLINE
  5
2f3
100
AcDbEntity
  8
0
 62
7
100
AcDbPolyline
 90
2
 70
0
 10
269.141112
 20
249.141133
 30
0.0
 10
269.141112
 20
231.141133
 30
0.0
  0
LWPOLYLINE
  5
2f4
100
AcDbEntity
  8
0
 62
7
100
AcDbPolyline
 90
2
 70
0
 10
111.141112
 20
249.141133
 30
0.0
 10
111.141112
 20
231.141133
 30
0.0
  0
LWPOLYLINE
  5
2f5
100
AcDbEntity
  8
0
 62
7
100
AcDbPolyline
 90
2
 70
0
 10
129.141110
 20
231.141133
 30
0.0
 10
129.141110
 20
249.141133
 30
0.0
  0
LWPOLYLINE
  5
2f6
100
AcDbEntity
  8
0
 62
7
100
AcDbPolyline
 90
2
 70
0
 10
129.141110
 20
231.141133
 30
0.0
 10
111.141112
 20
231.141133
 30
0.0
  0
LWPOLYLINE
  5
2f7
100
AcDbEntity
  8
0
 62
7
100
AcDbPolyline
 90
2
 70
0
 10
251.141111
 20
249.141133
 30
0.0
 10
269.141112
 20
249.141133
 30
0.0
  0
LWPOLYLINE
  5
2f8
100
AcDbEntity
  8
0
 62
7
100
AcDbPolyline
 90
2
 70
0
 10
251.141111
 20
231.141133
 30
0.0
 10
251.141111
 20
249.141133
 30
0.0
  0
LWPOLYLINE
  5
2f9
100
AcDbEntity
  8
0
 62
7
100
AcDbPolyline
 90
2
 70
0
 10
269.141112
 20
231.141133
 30
0.0
 10
251.141111
 20
231.141133
 30
0.0
  0
LWPOLYLINE
  5
2fa
100
AcDbEntity
  8
0
 62
7
100
AcDbPolyline
 90
2
 70
0
 10
131.141112
 20
231.141133
 30
0.0
 10
131.141112
 20
249.141133
 30
0.0
  0
LWPOLYLINE
  5
2fb
100
AcDbEntity
  8
0
 62
7
100
AcDbPolyline
 90
2
 70
0
 10
31.141111
 20
231.141133
 30
0.0
 10
49.141112
 20
231.141133
 30
0.0
  0
LWPOLYLINE
  5
2fc
100
AcDbEntity
  8
0
 62
7
100
AcDbPolyline
 90
3
 70
0
 10
49.141112
 20
249.141133
 30
0.0
 10
31.141111
 20
249.141133
 30
0.0
 10
31.141111
 20
231.141133
 30
0.0
  0
LWPOLYLINE
  5
2fd
100
AcDbEntity
  8
0
 62
7
100
AcDbPolyline
 90
2
 70
0
 10
151.141111
 20
231.141133
 30
0.0
 10
151.141111
 20
249.141133
 30
0.0
  0
LWPOLYLINE
  5
2fe
100
AcDbEntity
  8
0
 62
7
100
AcDbPolyline
 90
3
 70
0
 10
249.141110
 20
249.141133
 30
0.0
 10
249.141110
 20
231.141133
 30
0.0
 10
231.141112
 20
231.141133
 30
0.0
  0
LWPOLYLINE
  5
2ff
100
AcDbEntity
  8
0
 62
7
100
AcDbPolyline
 90
2
 70
0
 10
149.141112
 20
231.141133
 30
0.0
 10
131.141112
 20
231.141133
 30
0.0
  0
LWPOLYLINE
  5
300
100
AcDbEntity
  8
0
 62
7
100
AcDbPolyline
 90
2
 70
0
 10
231.141112
 20
249.141133
 30
0.0
 10
249.141110
 20
249.141133
 30
0.0
  0
LWPOLYLINE
  5
301
100
AcDbEntity
  8
0
 62
7
100
AcDbPolyline
 90
3
 70
0
 10
131.141112
 20
249.141133
 30
0.0
 10
149.141112
 20
249.141133
 30
0.0
 10
149.141112
 20
231.141133
 30
0.0
  0
LWPOLYLINE
  5
302
100
AcDbEntity
  8
0
 62
7
100
AcDbPolyline
 90
2
 70
0
 10
231.141112
 20
231.141133
 30
0.0
 10
231.141112
 20
249.141133
 30
0.0
  0
LWPOLYLINE
  5
303
100
AcDbEntity
  8
0
 62
7
100
AcDbPolyline
 90
2
 70
0
 10
171.141111
 20
249.141133
 30
0.0
 10
171.141111
 20
231.141133
 30
0.0
  0
LWPOLYLINE
  5
304
100
AcDbEntity
  8
0
 62
7
100
AcDbPolyline
 90
2
 70
0
 10
169.141112
 20
249.141133
 30
0.0
 10
169.141112
 20
231.141133
 30
0.0
  0
LWPOLYLINE
  5
305
100
AcDbEntity
  8
0
 62
7
100
AcDbPolyline
 90
3
 70
0
 10
189.141111
 20
231.141133
 30
0.0
 10
189.141111
 20
249.141133
 30
0.0
 10
171.141111
 20
249.141133
 30
0.0
  0
LWPOLYLINE
  5
306
100
AcDbEntity
  8
0
 62
7
100
AcDbPolyline
 90
5
 70
0
 10
71.141110
 20
251.141132
 30
0.0
 10
89.141111
 20
251.141132
 30
0.0
 10
89.141111
 20
269.141132
 30
0.0
 10
71.141110
 20
269.141132
 30
0.0
 10
71.141110
 20
251.141132
 30
0.0
  0
LWPOLYLINE
  5
307
100
AcDbEntity
  8
0
 62
7
100
AcDbPolyline
 90
2
 70
0
 10
111.141112
 20
269.141132
 30
0.0
 10
111.141112
 20
251.141132
 30
0.0
  0
LWPOLYLINE
  5
308
100
AcDbEntity
  8
0
 62
7
100
AcDbPolyline
 90
2
 70
0
 10
229.141110
 20
251.141132
 30
0.0
 10
229.141110
 20
269.141132
 30
0.0
  0
LWPOLYLINE
  5
309
100
AcDbEntity
  8
0
 62
7
100
AcDbPolyline
 90
2
 70
0
 10
109.141110
 20
251.141132
 30
0.0
 10
109.141110
 20
269.141132
 30
0.0
  0
LWPOLYLINE
  5
30a
100
AcDbEntity
  8
0
 62
7
100
AcDbPolyline
 90
2
 70
0
 10
171.141111
 20
269.141132
 30
0.0
 10
171.141111
 20
251.141132
 30
0.0
  0
LWPOLYLINE
  5
30b
100
AcDbEntity
  8
0
 62
7
100
AcDbPolyline
 90
2
 70
0
 10
269.141112
 20
251.141132
 30
0.0
 10
251.141111
 20
251.141132
 30
0.0
  0
LWPOLYLINE
  5
30c
100
AcDbEntity
  8
0
 62
7
100
AcDbPolyline
 90
2
 70
0
 10
251.141111
 20
269.141132
 30
0.0
 10
269.141112
 20
269.141132
 30
0.0
  0
LWPOLYLINE
  5
30d
100
AcDbEntity
  8
0
 62
7
100
AcDbPolyline
 90
2
 70
0
 10
91.141113
 20
251.141132
 30
0.0
 10
109.141110
 20
251.141132
 30
0.0
  0
LWPOLYLINE
  5
30e
100
AcDbEntity
  8
0
 62
7
100
AcDbPolyline
 90
3
 70
0
 10
109.141110
 20
269.141132
 30
0.0
 10
91.141113
 20
269.141132
 30
0.0
 10
91.141113
 20
251.141132
 30
0.0
  0
LWPOLYLINE
  5
30f
100
AcDbEntity
  8
0
 62
7
100
AcDbPolyline
 90
2
 70
0
 10
169.141112
 20
251.141132
 30
0.0
 10
151.141111
 20
251.141132
 30
0.0
  0
LWPOLYLINE
  5
310
100
AcDbEntity
  8
0
 62
7
100
AcDbPolyline
 90
2
 70
0
 10
169.141112
 20
269.141132
 30
0.0
 10
169.141112
 20
251.141132
 30
0.0
  0
LWPOLYLINE
  5
311
100
AcDbEntity
  8
0
 62
7
100
AcDbPolyline
 90
2
 70
0
 10
231.141112
 20
251.141132
 30
0.0
 10
231.141112
 20
269.141132
 30
0.0
  0
LWPOLYLINE
  5
312
100
AcDbEntity
  8
0
 62
7
100
AcDbPolyline
 90
5
 70
0
 10
51.141111
 20
251.141132
 30
0.0
 10
69.141111
 20
251.141132
 30
0.0
 10
69.141111
 20
269.141132
 30
0.0
 10
51.141111
 20
269.141132
 30
0.0
 10
51.141111
 20
251.141132
 30
0.0
  0
LWPOLYLINE
  5
313
100
AcDbEntity
  8
0
 62
7
100
AcDbPolyline
 90
2
 70
0
 10
31.141111
 20
269.141132
 30
0.0
 10
31.141111
 20
251.141132
 30
0.0
  0
LWPOLYLINE
  5
314
100
AcDbEntity
  8
0
 62
7
100
AcDbPolyline
 90
2
 70
0
 10
249.141110
 20
251.141132
 30
0.0
 10
231.141112
 20
251.141132
 30
0.0
  0
LWPOLYLINE
  5
315
100
AcDbEntity
  8
0
 62
7
100
AcDbPolyline
 90
2
 70
0
 10
231.141112
 20
269.141132
 30
0.0
 10
249.141110
 20
269.141132
 30
0.0
  0
LWPOLYLINE
  5
316
100
AcDbEntity
  8
0
 62
7
100
AcDbPolyline
 90
2
 70
0
 10
129.141110
 20
251.141132
 30
0.0
 10
111.141112
 20
251.141132
 30
0.0
  0
LWPOLYLINE
  5
317
100
AcDbEntity
  8
0
 62
7
100
AcDbPolyline
 90
2
 70
0
 10
149.141112
 20
251.141132
 30
0.0
 10
131.141112
 20
251.141132
 30
0.0
  0
LWPOLYLINE
  5
318
100
AcDbEntity
  8
0
 62
7
100
AcDbPolyline
 90
2
 70
0
 10
269.141112
 20
269.141132
 30
0.0
 10
269.141112
 20
251.141132
 30
0.0
  0
LWPOLYLINE
  5
319
100
AcDbEntity
  8
0
 62
7
100
AcDbPolyline
 90
2
 70
0
 10
129.141110
 20
251.141132
 30
0.0
 10
129.141110
 20
269.141132
 30
0.0
  0
LWPOLYLINE
  5
31a
100
AcDbEntity
  8
0
 62
7
100
AcDbPolyline
 90
2
 70
0
 10
249.141110
 20
269.141132
 30
0.0
 10
249.141110
 20
251.141132
 30
0.0
  0
LWPOLYLINE
  5
31b
100
AcDbEntity
  8
0
 62
7
100
AcDbPolyline
 90
2
 70
0
 10
129.141110
 20
269.141132
 30
0.0
 10
111.141112
 20
269.141132
 30
0.0
  0
LWPOLYLINE
  5
31c
100
AcDbEntity
  8
0
 62
7
100
AcDbPolyline
 90
2
 70
0
 10
49.141112
 20
251.141132
 30
0.0
 10
49.141112
 20
269.141132
 30
0.0
  0
LWPOLYLINE
  5
31d
100
AcDbEntity
  8
0
 62
7
100
AcDbPolyline
 90
2
 70
0
 10
209.141111
 20
251.141132
 30
0.0
 10
209.141111
 20
269.141132
 30
0.0
  0
LWPOLYLINE
  5
31e
100
AcDbEntity
  8
0
 62
7
100
AcDbPolyline
 90
2
 70
0
 10
189.141111
 20
251.141132
 30
0.0
 10
189.141111
 20
269.141132
 30
0.0
  0
LWPOLYLINE
  5
31f
100
AcDbEntity
  8
0
 62
7
100
AcDbPolyline
 90
2
 70
0
 10
209.141111
 20
269.141132
 30
0.0
 10
191.141110
 20
269.141132
 30
0.0
  0
LWPOLYLINE
  5
320
100
AcDbEntity
  8
0
 62
7
100
AcDbPolyline
 90
2
 70
0
 10
229.141110
 20
269.141132
 30
0.0
 10
211.141112
 20
269.141132
 30
0.0
  0
LWPOLYLINE
  5
321
100
AcDbEntity
  8
0
 62
7
100
AcDbPolyline
 90
2
 70
0
 10
171.141111
 20
251.141132
 30
0.0
 10
189.141111
 20
251.141132
 30
0.0
  0
LWPOLYLINE
  5
322
100
AcDbEntity
  8
0
 62
7
100
AcDbPolyline
 90
2
 70
0
 10
189.141111
 20
269.141132
 30
0.0
 10
171.141111
 20
269.141132
 30
0.0
  0
LWPOLYLINE
  5
323
100
AcDbEntity
  8
0
 62
7
100
AcDbPolyline
 90
2
 70
0
 10
211.141112
 20
251.141132
 30
0.0
 10
229.141110
 20
251.141132
 30
0.0
  0
LWPOLYLINE
  5
324
100
AcDbEntity
  8
0
 62
7
100
AcDbPolyline
 90
2
 70
0
 10
191.141110
 20
251.141132
 30
0.0
 10
209.141111
 20
251.141132
 30
0.0
  0
LWPOLYLINE
  5
325
100
AcDbEntity
  8
0
 62
7
100
AcDbPolyline
 90
2
 70
0
 10
251.141111
 20
251.141132
 30
0.0
 10
251.141111
 20
269.141132
 30
0.0
  0
LWPOLYLINE
  5
326
100
AcDbEntity
  8
0
 62
7
100
AcDbPolyline
 90
2
 70
0
 10
49.141112
 20
269.141132
 30
0.0
 10
31.141111
 20
269.141132
 30
0.0
  0
LWPOLYLINE
  5
327
100
AcDbEntity
  8
0
 62
7
100
AcDbPolyline
 90
2
 70
0
 10
151.141111
 20
269.141132
 30
0.0
 10
169.141112
 20
269.141132
 30
0.0
  0
LWPOLYLINE
  5
328
100
AcDbEntity
  8
0
 62
7
100
AcDbPolyline
 90
2
 70
0
 10
151.141111
 20
251.141132
 30
0.0
 10
151.141111
 20
269.141132
 30
0.0
  0
LWPOLYLINE
  5
329
100
AcDbEntity
  8
0
 62
7
100
AcDbPolyline
 90
2
 70
0
 10
31.141111
 20
251.141132
 30
0.0
 10
49.141112
 20
251.141132
 30
0.0
  0
LWPOLYLINE
  5
32a
100
AcDbEntity
  8
0
 62
7
100
AcDbPolyline
 90
2
 70
0
 10
131.141112
 20
269.141132
 30
0.0
 10
149.141112
 20
269.141132
 30
0.0
  0
LWPOLYLINE
  5
32b
100
AcDbEntity
  8
0
 62
7
100
AcDbPolyline
 90
2
 70
0
 10
191.141110
 20
269.141132
 30
0.0
 10
191.141110
 20
251.141132
 30
0.0
  0
LWPOLYLINE
  5
32c
100
AcDbEntity
  8
0
 62
7
100
AcDbPolyline
 90
2
 70
0
 10
211.141112
 20
269.141132
 30
0.0
 10
211.141112
 20
251.141132
 30
0.0
  0
LWPOLYLINE
  5
32d
100
AcDbEntity
  8
0
 62
7
100
AcDbPolyline
 90
2
 70
0
 10
131.141112
 20
251.141132
 30
0.0
 10
131.141112
 20
269.141132
 30
0.0
  0
LWPOLYLINE
  5
32e
100
AcDbEntity
  8
0
 62
7
100
AcDbPolyline
 90
2
 70
0
 10
149.141112
 20
269.141132
 30
0.0
 10
149.141112
 20
251.141132
 30
0.0
  0
LWPOLYLINE
  5
32f
100
AcDbEntity
  8
0
 62
7
100
AcDbPolyline
 90
2
 70
0
 10
145.141112
 20
0.141118
 30
0.0
 10
0.141111
 20
0.141118
 30
0.0
  0
LWPOLYLINE
  5
330
100
AcDbEntity
  8
0
 62
7
100
AcDbPolyline
 90
2
 70
0
 10
300.141104
 20
0.141118
 30
0.0
 10
155.141112
 20
0.141118
 30
0.0
  0
ENDSEC
  0
SECTION
  2
OBJECTS
  0
DICTIONARY
  5
C
330
0
100
AcDbDictionary
  3
ACAD_GROUP
350
D
  3
ACAD_MLINESTYLE
350
17
  0
DICTIONARY
  5
D
330
C
100
AcDbDictionary
  0
DICTIONARY
  5
1A
330
C
100
AcDbDictionary
  0
DICTIONARY
  5
17
330
C
100
AcDbDictionary
  3
STANDARD
350
18
  0
DICTIONARY
  5
19
330
C
100
AcDbDictionary
  0
ENDSEC
  0
EOF
