G75*
%MOIN*%
%OFA0B0*%
%FSLAX25Y25*%
%IPPOS*%
%LPD*%
%AMOC8*
5,1,8,0,0,1.08239X$1,22.5*
%
%ADD10C,0.01600*%
%ADD11C,0.00000*%
D10*
X0001800Y0009496D02*
X1182902Y0009496D01*
X1182902Y1190598D01*
X0001800Y1190598D01*
X0001800Y0009496D01*
D11*
X0060855Y0088236D02*
X0060861Y0088719D01*
X0060879Y0089202D01*
X0060908Y0089684D01*
X0060950Y0090165D01*
X0061003Y0090646D01*
X0061068Y0091124D01*
X0061145Y0091601D01*
X0061233Y0092076D01*
X0061333Y0092549D01*
X0061445Y0093019D01*
X0061568Y0093486D01*
X0061703Y0093950D01*
X0061849Y0094411D01*
X0062006Y0094868D01*
X0062174Y0095321D01*
X0062353Y0095769D01*
X0062544Y0096213D01*
X0062745Y0096652D01*
X0062957Y0097087D01*
X0063179Y0097515D01*
X0063412Y0097939D01*
X0063656Y0098356D01*
X0063909Y0098767D01*
X0064173Y0099172D01*
X0064446Y0099571D01*
X0064729Y0099962D01*
X0065021Y0100347D01*
X0065323Y0100724D01*
X0065634Y0101094D01*
X0065954Y0101456D01*
X0066283Y0101810D01*
X0066621Y0102155D01*
X0066966Y0102493D01*
X0067320Y0102822D01*
X0067682Y0103142D01*
X0068052Y0103453D01*
X0068429Y0103755D01*
X0068814Y0104047D01*
X0069205Y0104330D01*
X0069604Y0104603D01*
X0070009Y0104867D01*
X0070420Y0105120D01*
X0070837Y0105364D01*
X0071261Y0105597D01*
X0071689Y0105819D01*
X0072124Y0106031D01*
X0072563Y0106232D01*
X0073007Y0106423D01*
X0073455Y0106602D01*
X0073908Y0106770D01*
X0074365Y0106927D01*
X0074826Y0107073D01*
X0075290Y0107208D01*
X0075757Y0107331D01*
X0076227Y0107443D01*
X0076700Y0107543D01*
X0077175Y0107631D01*
X0077652Y0107708D01*
X0078130Y0107773D01*
X0078611Y0107826D01*
X0079092Y0107868D01*
X0079574Y0107897D01*
X0080057Y0107915D01*
X0080540Y0107921D01*
X0081023Y0107915D01*
X0081506Y0107897D01*
X0081988Y0107868D01*
X0082469Y0107826D01*
X0082950Y0107773D01*
X0083428Y0107708D01*
X0083905Y0107631D01*
X0084380Y0107543D01*
X0084853Y0107443D01*
X0085323Y0107331D01*
X0085790Y0107208D01*
X0086254Y0107073D01*
X0086715Y0106927D01*
X0087172Y0106770D01*
X0087625Y0106602D01*
X0088073Y0106423D01*
X0088517Y0106232D01*
X0088956Y0106031D01*
X0089391Y0105819D01*
X0089819Y0105597D01*
X0090243Y0105364D01*
X0090660Y0105120D01*
X0091071Y0104867D01*
X0091476Y0104603D01*
X0091875Y0104330D01*
X0092266Y0104047D01*
X0092651Y0103755D01*
X0093028Y0103453D01*
X0093398Y0103142D01*
X0093760Y0102822D01*
X0094114Y0102493D01*
X0094459Y0102155D01*
X0094797Y0101810D01*
X0095126Y0101456D01*
X0095446Y0101094D01*
X0095757Y0100724D01*
X0096059Y0100347D01*
X0096351Y0099962D01*
X0096634Y0099571D01*
X0096907Y0099172D01*
X0097171Y0098767D01*
X0097424Y0098356D01*
X0097668Y0097939D01*
X0097901Y0097515D01*
X0098123Y0097087D01*
X0098335Y0096652D01*
X0098536Y0096213D01*
X0098727Y0095769D01*
X0098906Y0095321D01*
X0099074Y0094868D01*
X0099231Y0094411D01*
X0099377Y0093950D01*
X0099512Y0093486D01*
X0099635Y0093019D01*
X0099747Y0092549D01*
X0099847Y0092076D01*
X0099935Y0091601D01*
X0100012Y0091124D01*
X0100077Y0090646D01*
X0100130Y0090165D01*
X0100172Y0089684D01*
X0100201Y0089202D01*
X0100219Y0088719D01*
X0100225Y0088236D01*
X0100219Y0087753D01*
X0100201Y0087270D01*
X0100172Y0086788D01*
X0100130Y0086307D01*
X0100077Y0085826D01*
X0100012Y0085348D01*
X0099935Y0084871D01*
X0099847Y0084396D01*
X0099747Y0083923D01*
X0099635Y0083453D01*
X0099512Y0082986D01*
X0099377Y0082522D01*
X0099231Y0082061D01*
X0099074Y0081604D01*
X0098906Y0081151D01*
X0098727Y0080703D01*
X0098536Y0080259D01*
X0098335Y0079820D01*
X0098123Y0079385D01*
X0097901Y0078957D01*
X0097668Y0078533D01*
X0097424Y0078116D01*
X0097171Y0077705D01*
X0096907Y0077300D01*
X0096634Y0076901D01*
X0096351Y0076510D01*
X0096059Y0076125D01*
X0095757Y0075748D01*
X0095446Y0075378D01*
X0095126Y0075016D01*
X0094797Y0074662D01*
X0094459Y0074317D01*
X0094114Y0073979D01*
X0093760Y0073650D01*
X0093398Y0073330D01*
X0093028Y0073019D01*
X0092651Y0072717D01*
X0092266Y0072425D01*
X0091875Y0072142D01*
X0091476Y0071869D01*
X0091071Y0071605D01*
X0090660Y0071352D01*
X0090243Y0071108D01*
X0089819Y0070875D01*
X0089391Y0070653D01*
X0088956Y0070441D01*
X0088517Y0070240D01*
X0088073Y0070049D01*
X0087625Y0069870D01*
X0087172Y0069702D01*
X0086715Y0069545D01*
X0086254Y0069399D01*
X0085790Y0069264D01*
X0085323Y0069141D01*
X0084853Y0069029D01*
X0084380Y0068929D01*
X0083905Y0068841D01*
X0083428Y0068764D01*
X0082950Y0068699D01*
X0082469Y0068646D01*
X0081988Y0068604D01*
X0081506Y0068575D01*
X0081023Y0068557D01*
X0080540Y0068551D01*
X0080057Y0068557D01*
X0079574Y0068575D01*
X0079092Y0068604D01*
X0078611Y0068646D01*
X0078130Y0068699D01*
X0077652Y0068764D01*
X0077175Y0068841D01*
X0076700Y0068929D01*
X0076227Y0069029D01*
X0075757Y0069141D01*
X0075290Y0069264D01*
X0074826Y0069399D01*
X0074365Y0069545D01*
X0073908Y0069702D01*
X0073455Y0069870D01*
X0073007Y0070049D01*
X0072563Y0070240D01*
X0072124Y0070441D01*
X0071689Y0070653D01*
X0071261Y0070875D01*
X0070837Y0071108D01*
X0070420Y0071352D01*
X0070009Y0071605D01*
X0069604Y0071869D01*
X0069205Y0072142D01*
X0068814Y0072425D01*
X0068429Y0072717D01*
X0068052Y0073019D01*
X0067682Y0073330D01*
X0067320Y0073650D01*
X0066966Y0073979D01*
X0066621Y0074317D01*
X0066283Y0074662D01*
X0065954Y0075016D01*
X0065634Y0075378D01*
X0065323Y0075748D01*
X0065021Y0076125D01*
X0064729Y0076510D01*
X0064446Y0076901D01*
X0064173Y0077300D01*
X0063909Y0077705D01*
X0063656Y0078116D01*
X0063412Y0078533D01*
X0063179Y0078957D01*
X0062957Y0079385D01*
X0062745Y0079820D01*
X0062544Y0080259D01*
X0062353Y0080703D01*
X0062174Y0081151D01*
X0062006Y0081604D01*
X0061849Y0082061D01*
X0061703Y0082522D01*
X0061568Y0082986D01*
X0061445Y0083453D01*
X0061333Y0083923D01*
X0061233Y0084396D01*
X0061145Y0084871D01*
X0061068Y0085348D01*
X0061003Y0085826D01*
X0060950Y0086307D01*
X0060908Y0086788D01*
X0060879Y0087270D01*
X0060861Y0087753D01*
X0060855Y0088236D01*
X0060855Y1111858D02*
X0060861Y1112341D01*
X0060879Y1112824D01*
X0060908Y1113306D01*
X0060950Y1113787D01*
X0061003Y1114268D01*
X0061068Y1114746D01*
X0061145Y1115223D01*
X0061233Y1115698D01*
X0061333Y1116171D01*
X0061445Y1116641D01*
X0061568Y1117108D01*
X0061703Y1117572D01*
X0061849Y1118033D01*
X0062006Y1118490D01*
X0062174Y1118943D01*
X0062353Y1119391D01*
X0062544Y1119835D01*
X0062745Y1120274D01*
X0062957Y1120709D01*
X0063179Y1121137D01*
X0063412Y1121561D01*
X0063656Y1121978D01*
X0063909Y1122389D01*
X0064173Y1122794D01*
X0064446Y1123193D01*
X0064729Y1123584D01*
X0065021Y1123969D01*
X0065323Y1124346D01*
X0065634Y1124716D01*
X0065954Y1125078D01*
X0066283Y1125432D01*
X0066621Y1125777D01*
X0066966Y1126115D01*
X0067320Y1126444D01*
X0067682Y1126764D01*
X0068052Y1127075D01*
X0068429Y1127377D01*
X0068814Y1127669D01*
X0069205Y1127952D01*
X0069604Y1128225D01*
X0070009Y1128489D01*
X0070420Y1128742D01*
X0070837Y1128986D01*
X0071261Y1129219D01*
X0071689Y1129441D01*
X0072124Y1129653D01*
X0072563Y1129854D01*
X0073007Y1130045D01*
X0073455Y1130224D01*
X0073908Y1130392D01*
X0074365Y1130549D01*
X0074826Y1130695D01*
X0075290Y1130830D01*
X0075757Y1130953D01*
X0076227Y1131065D01*
X0076700Y1131165D01*
X0077175Y1131253D01*
X0077652Y1131330D01*
X0078130Y1131395D01*
X0078611Y1131448D01*
X0079092Y1131490D01*
X0079574Y1131519D01*
X0080057Y1131537D01*
X0080540Y1131543D01*
X0081023Y1131537D01*
X0081506Y1131519D01*
X0081988Y1131490D01*
X0082469Y1131448D01*
X0082950Y1131395D01*
X0083428Y1131330D01*
X0083905Y1131253D01*
X0084380Y1131165D01*
X0084853Y1131065D01*
X0085323Y1130953D01*
X0085790Y1130830D01*
X0086254Y1130695D01*
X0086715Y1130549D01*
X0087172Y1130392D01*
X0087625Y1130224D01*
X0088073Y1130045D01*
X0088517Y1129854D01*
X0088956Y1129653D01*
X0089391Y1129441D01*
X0089819Y1129219D01*
X0090243Y1128986D01*
X0090660Y1128742D01*
X0091071Y1128489D01*
X0091476Y1128225D01*
X0091875Y1127952D01*
X0092266Y1127669D01*
X0092651Y1127377D01*
X0093028Y1127075D01*
X0093398Y1126764D01*
X0093760Y1126444D01*
X0094114Y1126115D01*
X0094459Y1125777D01*
X0094797Y1125432D01*
X0095126Y1125078D01*
X0095446Y1124716D01*
X0095757Y1124346D01*
X0096059Y1123969D01*
X0096351Y1123584D01*
X0096634Y1123193D01*
X0096907Y1122794D01*
X0097171Y1122389D01*
X0097424Y1121978D01*
X0097668Y1121561D01*
X0097901Y1121137D01*
X0098123Y1120709D01*
X0098335Y1120274D01*
X0098536Y1119835D01*
X0098727Y1119391D01*
X0098906Y1118943D01*
X0099074Y1118490D01*
X0099231Y1118033D01*
X0099377Y1117572D01*
X0099512Y1117108D01*
X0099635Y1116641D01*
X0099747Y1116171D01*
X0099847Y1115698D01*
X0099935Y1115223D01*
X0100012Y1114746D01*
X0100077Y1114268D01*
X0100130Y1113787D01*
X0100172Y1113306D01*
X0100201Y1112824D01*
X0100219Y1112341D01*
X0100225Y1111858D01*
X0100219Y1111375D01*
X0100201Y1110892D01*
X0100172Y1110410D01*
X0100130Y1109929D01*
X0100077Y1109448D01*
X0100012Y1108970D01*
X0099935Y1108493D01*
X0099847Y1108018D01*
X0099747Y1107545D01*
X0099635Y1107075D01*
X0099512Y1106608D01*
X0099377Y1106144D01*
X0099231Y1105683D01*
X0099074Y1105226D01*
X0098906Y1104773D01*
X0098727Y1104325D01*
X0098536Y1103881D01*
X0098335Y1103442D01*
X0098123Y1103007D01*
X0097901Y1102579D01*
X0097668Y1102155D01*
X0097424Y1101738D01*
X0097171Y1101327D01*
X0096907Y1100922D01*
X0096634Y1100523D01*
X0096351Y1100132D01*
X0096059Y1099747D01*
X0095757Y1099370D01*
X0095446Y1099000D01*
X0095126Y1098638D01*
X0094797Y1098284D01*
X0094459Y1097939D01*
X0094114Y1097601D01*
X0093760Y1097272D01*
X0093398Y1096952D01*
X0093028Y1096641D01*
X0092651Y1096339D01*
X0092266Y1096047D01*
X0091875Y1095764D01*
X0091476Y1095491D01*
X0091071Y1095227D01*
X0090660Y1094974D01*
X0090243Y1094730D01*
X0089819Y1094497D01*
X0089391Y1094275D01*
X0088956Y1094063D01*
X0088517Y1093862D01*
X0088073Y1093671D01*
X0087625Y1093492D01*
X0087172Y1093324D01*
X0086715Y1093167D01*
X0086254Y1093021D01*
X0085790Y1092886D01*
X0085323Y1092763D01*
X0084853Y1092651D01*
X0084380Y1092551D01*
X0083905Y1092463D01*
X0083428Y1092386D01*
X0082950Y1092321D01*
X0082469Y1092268D01*
X0081988Y1092226D01*
X0081506Y1092197D01*
X0081023Y1092179D01*
X0080540Y1092173D01*
X0080057Y1092179D01*
X0079574Y1092197D01*
X0079092Y1092226D01*
X0078611Y1092268D01*
X0078130Y1092321D01*
X0077652Y1092386D01*
X0077175Y1092463D01*
X0076700Y1092551D01*
X0076227Y1092651D01*
X0075757Y1092763D01*
X0075290Y1092886D01*
X0074826Y1093021D01*
X0074365Y1093167D01*
X0073908Y1093324D01*
X0073455Y1093492D01*
X0073007Y1093671D01*
X0072563Y1093862D01*
X0072124Y1094063D01*
X0071689Y1094275D01*
X0071261Y1094497D01*
X0070837Y1094730D01*
X0070420Y1094974D01*
X0070009Y1095227D01*
X0069604Y1095491D01*
X0069205Y1095764D01*
X0068814Y1096047D01*
X0068429Y1096339D01*
X0068052Y1096641D01*
X0067682Y1096952D01*
X0067320Y1097272D01*
X0066966Y1097601D01*
X0066621Y1097939D01*
X0066283Y1098284D01*
X0065954Y1098638D01*
X0065634Y1099000D01*
X0065323Y1099370D01*
X0065021Y1099747D01*
X0064729Y1100132D01*
X0064446Y1100523D01*
X0064173Y1100922D01*
X0063909Y1101327D01*
X0063656Y1101738D01*
X0063412Y1102155D01*
X0063179Y1102579D01*
X0062957Y1103007D01*
X0062745Y1103442D01*
X0062544Y1103881D01*
X0062353Y1104325D01*
X0062174Y1104773D01*
X0062006Y1105226D01*
X0061849Y1105683D01*
X0061703Y1106144D01*
X0061568Y1106608D01*
X0061445Y1107075D01*
X0061333Y1107545D01*
X0061233Y1108018D01*
X0061145Y1108493D01*
X0061068Y1108970D01*
X0061003Y1109448D01*
X0060950Y1109929D01*
X0060908Y1110410D01*
X0060879Y1110892D01*
X0060861Y1111375D01*
X0060855Y1111858D01*
X1084477Y1111858D02*
X1084483Y1112341D01*
X1084501Y1112824D01*
X1084530Y1113306D01*
X1084572Y1113787D01*
X1084625Y1114268D01*
X1084690Y1114746D01*
X1084767Y1115223D01*
X1084855Y1115698D01*
X1084955Y1116171D01*
X1085067Y1116641D01*
X1085190Y1117108D01*
X1085325Y1117572D01*
X1085471Y1118033D01*
X1085628Y1118490D01*
X1085796Y1118943D01*
X1085975Y1119391D01*
X1086166Y1119835D01*
X1086367Y1120274D01*
X1086579Y1120709D01*
X1086801Y1121137D01*
X1087034Y1121561D01*
X1087278Y1121978D01*
X1087531Y1122389D01*
X1087795Y1122794D01*
X1088068Y1123193D01*
X1088351Y1123584D01*
X1088643Y1123969D01*
X1088945Y1124346D01*
X1089256Y1124716D01*
X1089576Y1125078D01*
X1089905Y1125432D01*
X1090243Y1125777D01*
X1090588Y1126115D01*
X1090942Y1126444D01*
X1091304Y1126764D01*
X1091674Y1127075D01*
X1092051Y1127377D01*
X1092436Y1127669D01*
X1092827Y1127952D01*
X1093226Y1128225D01*
X1093631Y1128489D01*
X1094042Y1128742D01*
X1094459Y1128986D01*
X1094883Y1129219D01*
X1095311Y1129441D01*
X1095746Y1129653D01*
X1096185Y1129854D01*
X1096629Y1130045D01*
X1097077Y1130224D01*
X1097530Y1130392D01*
X1097987Y1130549D01*
X1098448Y1130695D01*
X1098912Y1130830D01*
X1099379Y1130953D01*
X1099849Y1131065D01*
X1100322Y1131165D01*
X1100797Y1131253D01*
X1101274Y1131330D01*
X1101752Y1131395D01*
X1102233Y1131448D01*
X1102714Y1131490D01*
X1103196Y1131519D01*
X1103679Y1131537D01*
X1104162Y1131543D01*
X1104645Y1131537D01*
X1105128Y1131519D01*
X1105610Y1131490D01*
X1106091Y1131448D01*
X1106572Y1131395D01*
X1107050Y1131330D01*
X1107527Y1131253D01*
X1108002Y1131165D01*
X1108475Y1131065D01*
X1108945Y1130953D01*
X1109412Y1130830D01*
X1109876Y1130695D01*
X1110337Y1130549D01*
X1110794Y1130392D01*
X1111247Y1130224D01*
X1111695Y1130045D01*
X1112139Y1129854D01*
X1112578Y1129653D01*
X1113013Y1129441D01*
X1113441Y1129219D01*
X1113865Y1128986D01*
X1114282Y1128742D01*
X1114693Y1128489D01*
X1115098Y1128225D01*
X1115497Y1127952D01*
X1115888Y1127669D01*
X1116273Y1127377D01*
X1116650Y1127075D01*
X1117020Y1126764D01*
X1117382Y1126444D01*
X1117736Y1126115D01*
X1118081Y1125777D01*
X1118419Y1125432D01*
X1118748Y1125078D01*
X1119068Y1124716D01*
X1119379Y1124346D01*
X1119681Y1123969D01*
X1119973Y1123584D01*
X1120256Y1123193D01*
X1120529Y1122794D01*
X1120793Y1122389D01*
X1121046Y1121978D01*
X1121290Y1121561D01*
X1121523Y1121137D01*
X1121745Y1120709D01*
X1121957Y1120274D01*
X1122158Y1119835D01*
X1122349Y1119391D01*
X1122528Y1118943D01*
X1122696Y1118490D01*
X1122853Y1118033D01*
X1122999Y1117572D01*
X1123134Y1117108D01*
X1123257Y1116641D01*
X1123369Y1116171D01*
X1123469Y1115698D01*
X1123557Y1115223D01*
X1123634Y1114746D01*
X1123699Y1114268D01*
X1123752Y1113787D01*
X1123794Y1113306D01*
X1123823Y1112824D01*
X1123841Y1112341D01*
X1123847Y1111858D01*
X1123841Y1111375D01*
X1123823Y1110892D01*
X1123794Y1110410D01*
X1123752Y1109929D01*
X1123699Y1109448D01*
X1123634Y1108970D01*
X1123557Y1108493D01*
X1123469Y1108018D01*
X1123369Y1107545D01*
X1123257Y1107075D01*
X1123134Y1106608D01*
X1122999Y1106144D01*
X1122853Y1105683D01*
X1122696Y1105226D01*
X1122528Y1104773D01*
X1122349Y1104325D01*
X1122158Y1103881D01*
X1121957Y1103442D01*
X1121745Y1103007D01*
X1121523Y1102579D01*
X1121290Y1102155D01*
X1121046Y1101738D01*
X1120793Y1101327D01*
X1120529Y1100922D01*
X1120256Y1100523D01*
X1119973Y1100132D01*
X1119681Y1099747D01*
X1119379Y1099370D01*
X1119068Y1099000D01*
X1118748Y1098638D01*
X1118419Y1098284D01*
X1118081Y1097939D01*
X1117736Y1097601D01*
X1117382Y1097272D01*
X1117020Y1096952D01*
X1116650Y1096641D01*
X1116273Y1096339D01*
X1115888Y1096047D01*
X1115497Y1095764D01*
X1115098Y1095491D01*
X1114693Y1095227D01*
X1114282Y1094974D01*
X1113865Y1094730D01*
X1113441Y1094497D01*
X1113013Y1094275D01*
X1112578Y1094063D01*
X1112139Y1093862D01*
X1111695Y1093671D01*
X1111247Y1093492D01*
X1110794Y1093324D01*
X1110337Y1093167D01*
X1109876Y1093021D01*
X1109412Y1092886D01*
X1108945Y1092763D01*
X1108475Y1092651D01*
X1108002Y1092551D01*
X1107527Y1092463D01*
X1107050Y1092386D01*
X1106572Y1092321D01*
X1106091Y1092268D01*
X1105610Y1092226D01*
X1105128Y1092197D01*
X1104645Y1092179D01*
X1104162Y1092173D01*
X1103679Y1092179D01*
X1103196Y1092197D01*
X1102714Y1092226D01*
X1102233Y1092268D01*
X1101752Y1092321D01*
X1101274Y1092386D01*
X1100797Y1092463D01*
X1100322Y1092551D01*
X1099849Y1092651D01*
X1099379Y1092763D01*
X1098912Y1092886D01*
X1098448Y1093021D01*
X1097987Y1093167D01*
X1097530Y1093324D01*
X1097077Y1093492D01*
X1096629Y1093671D01*
X1096185Y1093862D01*
X1095746Y1094063D01*
X1095311Y1094275D01*
X1094883Y1094497D01*
X1094459Y1094730D01*
X1094042Y1094974D01*
X1093631Y1095227D01*
X1093226Y1095491D01*
X1092827Y1095764D01*
X1092436Y1096047D01*
X1092051Y1096339D01*
X1091674Y1096641D01*
X1091304Y1096952D01*
X1090942Y1097272D01*
X1090588Y1097601D01*
X1090243Y1097939D01*
X1089905Y1098284D01*
X1089576Y1098638D01*
X1089256Y1099000D01*
X1088945Y1099370D01*
X1088643Y1099747D01*
X1088351Y1100132D01*
X1088068Y1100523D01*
X1087795Y1100922D01*
X1087531Y1101327D01*
X1087278Y1101738D01*
X1087034Y1102155D01*
X1086801Y1102579D01*
X1086579Y1103007D01*
X1086367Y1103442D01*
X1086166Y1103881D01*
X1085975Y1104325D01*
X1085796Y1104773D01*
X1085628Y1105226D01*
X1085471Y1105683D01*
X1085325Y1106144D01*
X1085190Y1106608D01*
X1085067Y1107075D01*
X1084955Y1107545D01*
X1084855Y1108018D01*
X1084767Y1108493D01*
X1084690Y1108970D01*
X1084625Y1109448D01*
X1084572Y1109929D01*
X1084530Y1110410D01*
X1084501Y1110892D01*
X1084483Y1111375D01*
X1084477Y1111858D01*
X1084477Y0088236D02*
X1084483Y0088719D01*
X1084501Y0089202D01*
X1084530Y0089684D01*
X1084572Y0090165D01*
X1084625Y0090646D01*
X1084690Y0091124D01*
X1084767Y0091601D01*
X1084855Y0092076D01*
X1084955Y0092549D01*
X1085067Y0093019D01*
X1085190Y0093486D01*
X1085325Y0093950D01*
X1085471Y0094411D01*
X1085628Y0094868D01*
X1085796Y0095321D01*
X1085975Y0095769D01*
X1086166Y0096213D01*
X1086367Y0096652D01*
X1086579Y0097087D01*
X1086801Y0097515D01*
X1087034Y0097939D01*
X1087278Y0098356D01*
X1087531Y0098767D01*
X1087795Y0099172D01*
X1088068Y0099571D01*
X1088351Y0099962D01*
X1088643Y0100347D01*
X1088945Y0100724D01*
X1089256Y0101094D01*
X1089576Y0101456D01*
X1089905Y0101810D01*
X1090243Y0102155D01*
X1090588Y0102493D01*
X1090942Y0102822D01*
X1091304Y0103142D01*
X1091674Y0103453D01*
X1092051Y0103755D01*
X1092436Y0104047D01*
X1092827Y0104330D01*
X1093226Y0104603D01*
X1093631Y0104867D01*
X1094042Y0105120D01*
X1094459Y0105364D01*
X1094883Y0105597D01*
X1095311Y0105819D01*
X1095746Y0106031D01*
X1096185Y0106232D01*
X1096629Y0106423D01*
X1097077Y0106602D01*
X1097530Y0106770D01*
X1097987Y0106927D01*
X1098448Y0107073D01*
X1098912Y0107208D01*
X1099379Y0107331D01*
X1099849Y0107443D01*
X1100322Y0107543D01*
X1100797Y0107631D01*
X1101274Y0107708D01*
X1101752Y0107773D01*
X1102233Y0107826D01*
X1102714Y0107868D01*
X1103196Y0107897D01*
X1103679Y0107915D01*
X1104162Y0107921D01*
X1104645Y0107915D01*
X1105128Y0107897D01*
X1105610Y0107868D01*
X1106091Y0107826D01*
X1106572Y0107773D01*
X1107050Y0107708D01*
X1107527Y0107631D01*
X1108002Y0107543D01*
X1108475Y0107443D01*
X1108945Y0107331D01*
X1109412Y0107208D01*
X1109876Y0107073D01*
X1110337Y0106927D01*
X1110794Y0106770D01*
X1111247Y0106602D01*
X1111695Y0106423D01*
X1112139Y0106232D01*
X1112578Y0106031D01*
X1113013Y0105819D01*
X1113441Y0105597D01*
X1113865Y0105364D01*
X1114282Y0105120D01*
X1114693Y0104867D01*
X1115098Y0104603D01*
X1115497Y0104330D01*
X1115888Y0104047D01*
X1116273Y0103755D01*
X1116650Y0103453D01*
X1117020Y0103142D01*
X1117382Y0102822D01*
X1117736Y0102493D01*
X1118081Y0102155D01*
X1118419Y0101810D01*
X1118748Y0101456D01*
X1119068Y0101094D01*
X1119379Y0100724D01*
X1119681Y0100347D01*
X1119973Y0099962D01*
X1120256Y0099571D01*
X1120529Y0099172D01*
X1120793Y0098767D01*
X1121046Y0098356D01*
X1121290Y0097939D01*
X1121523Y0097515D01*
X1121745Y0097087D01*
X1121957Y0096652D01*
X1122158Y0096213D01*
X1122349Y0095769D01*
X1122528Y0095321D01*
X1122696Y0094868D01*
X1122853Y0094411D01*
X1122999Y0093950D01*
X1123134Y0093486D01*
X1123257Y0093019D01*
X1123369Y0092549D01*
X1123469Y0092076D01*
X1123557Y0091601D01*
X1123634Y0091124D01*
X1123699Y0090646D01*
X1123752Y0090165D01*
X1123794Y0089684D01*
X1123823Y0089202D01*
X1123841Y0088719D01*
X1123847Y0088236D01*
X1123841Y0087753D01*
X1123823Y0087270D01*
X1123794Y0086788D01*
X1123752Y0086307D01*
X1123699Y0085826D01*
X1123634Y0085348D01*
X1123557Y0084871D01*
X1123469Y0084396D01*
X1123369Y0083923D01*
X1123257Y0083453D01*
X1123134Y0082986D01*
X1122999Y0082522D01*
X1122853Y0082061D01*
X1122696Y0081604D01*
X1122528Y0081151D01*
X1122349Y0080703D01*
X1122158Y0080259D01*
X1121957Y0079820D01*
X1121745Y0079385D01*
X1121523Y0078957D01*
X1121290Y0078533D01*
X1121046Y0078116D01*
X1120793Y0077705D01*
X1120529Y0077300D01*
X1120256Y0076901D01*
X1119973Y0076510D01*
X1119681Y0076125D01*
X1119379Y0075748D01*
X1119068Y0075378D01*
X1118748Y0075016D01*
X1118419Y0074662D01*
X1118081Y0074317D01*
X1117736Y0073979D01*
X1117382Y0073650D01*
X1117020Y0073330D01*
X1116650Y0073019D01*
X1116273Y0072717D01*
X1115888Y0072425D01*
X1115497Y0072142D01*
X1115098Y0071869D01*
X1114693Y0071605D01*
X1114282Y0071352D01*
X1113865Y0071108D01*
X1113441Y0070875D01*
X1113013Y0070653D01*
X1112578Y0070441D01*
X1112139Y0070240D01*
X1111695Y0070049D01*
X1111247Y0069870D01*
X1110794Y0069702D01*
X1110337Y0069545D01*
X1109876Y0069399D01*
X1109412Y0069264D01*
X1108945Y0069141D01*
X1108475Y0069029D01*
X1108002Y0068929D01*
X1107527Y0068841D01*
X1107050Y0068764D01*
X1106572Y0068699D01*
X1106091Y0068646D01*
X1105610Y0068604D01*
X1105128Y0068575D01*
X1104645Y0068557D01*
X1104162Y0068551D01*
X1103679Y0068557D01*
X1103196Y0068575D01*
X1102714Y0068604D01*
X1102233Y0068646D01*
X1101752Y0068699D01*
X1101274Y0068764D01*
X1100797Y0068841D01*
X1100322Y0068929D01*
X1099849Y0069029D01*
X1099379Y0069141D01*
X1098912Y0069264D01*
X1098448Y0069399D01*
X1097987Y0069545D01*
X1097530Y0069702D01*
X1097077Y0069870D01*
X1096629Y0070049D01*
X1096185Y0070240D01*
X1095746Y0070441D01*
X1095311Y0070653D01*
X1094883Y0070875D01*
X1094459Y0071108D01*
X1094042Y0071352D01*
X1093631Y0071605D01*
X1093226Y0071869D01*
X1092827Y0072142D01*
X1092436Y0072425D01*
X1092051Y0072717D01*
X1091674Y0073019D01*
X1091304Y0073330D01*
X1090942Y0073650D01*
X1090588Y0073979D01*
X1090243Y0074317D01*
X1089905Y0074662D01*
X1089576Y0075016D01*
X1089256Y0075378D01*
X1088945Y0075748D01*
X1088643Y0076125D01*
X1088351Y0076510D01*
X1088068Y0076901D01*
X1087795Y0077300D01*
X1087531Y0077705D01*
X1087278Y0078116D01*
X1087034Y0078533D01*
X1086801Y0078957D01*
X1086579Y0079385D01*
X1086367Y0079820D01*
X1086166Y0080259D01*
X1085975Y0080703D01*
X1085796Y0081151D01*
X1085628Y0081604D01*
X1085471Y0082061D01*
X1085325Y0082522D01*
X1085190Y0082986D01*
X1085067Y0083453D01*
X1084955Y0083923D01*
X1084855Y0084396D01*
X1084767Y0084871D01*
X1084690Y0085348D01*
X1084625Y0085826D01*
X1084572Y0086307D01*
X1084530Y0086788D01*
X1084501Y0087270D01*
X1084483Y0087753D01*
X1084477Y0088236D01*
M02*
