%
M48
M72
T01C0.01200
T02C0.02756
T03C0.03150
T04C0.04000
T05C0.05900
T06C0.07874
T07C0.11024
T08C0.11800
T09C0.39370
%
T01
X445993Y304772
X445993Y312646
X470304Y308709
X489989Y289024
X489989Y281150
X517548Y316583
X537233Y308709
X568729Y285087
X580540Y285087
X612036Y269339
X619910Y287055
X651406Y308709
X663217Y308709
X675028Y308709
X694713Y269339
X653375Y269339
X596288Y334299
X588414Y332331
X580540Y330362
X564792Y344142
X558887Y342173
X572666Y348079
X580540Y348079
X588414Y348079
X596288Y348079
X608717Y346110
X637627Y367764
X647469Y359890
X690776Y359890
X738020Y304772
X736052Y269339
X779359Y206346
X757706Y190598
X715383Y190598
X674044Y190598
X643532Y190598
X629753Y176819
X612036Y155165
X592351Y155165
X590383Y184693
X517548Y186661
X509674Y206346
X454158Y232185
X454556Y137449
X491957Y330362
X501800Y342173
X529359Y403197
X513611Y442567
X529359Y462252
X495894Y462252
X493926Y442567
X478178Y442567
X454556Y422882
X560855Y442567
X576603Y442567
X584477Y422882
X808887Y324457
X818729Y308709
X840383Y367764
X889595Y328394
X897469Y328394
X1096288Y320520
X1096288Y363827
X1096288Y407134
X1096288Y450441
X905343Y127606
X881721Y127606
X864005Y66583
X730146Y123669
X671091Y129575
X657312Y129575
X1056918Y1025244
T02
X874241Y47764
X871091Y42646
X867942Y47764
X864792Y42646
X861643Y47764
X323060Y47764
X319910Y42646
X316761Y47764
X313611Y42646
X310461Y47764
T03
X88414Y245717
X72666Y245717
X72666Y954378
X88414Y954378
X1096288Y954378
X1112036Y954378
X1112036Y245717
X1096288Y245717
T04
X1174023Y311620
X1174023Y329420
X1174023Y354927
X1174023Y372727
X1174023Y398234
X1174023Y416034
X1174023Y441541
X1174023Y459341
X963493Y419693
X953493Y419693
X939871Y419693
X929871Y419693
X884753Y419693
X874753Y419693
X861131Y419693
X851131Y419693
X503178Y481780
X503178Y491780
X503178Y501780
X493178Y501780
X493178Y491780
X493178Y481780
X454556Y76425
X730146Y76425
X1005737Y76425
X178965Y76425
T05
X1164223Y306720
X1164223Y334320
X1164223Y350027
X1164223Y377627
X1164223Y393334
X1164223Y420934
X1164223Y436641
X1164223Y464241
T06
X882312Y27488
X853572Y27488
X331131Y27488
X302391Y27488
T07
X41170Y48866
X41170Y1151228
X1143532Y1151228
X1143532Y48866
T08
X592351Y39811
X573847Y51622
X592351Y63433
T09
X80540Y88236
X80540Y1111858
X1104162Y1111858
X1104162Y88236
M30
